<svg width="36" height="36" viewBox="0 0 36 36" fill="none" xmlns="http://www.w3.org/2000/svg">
<path d="M34.875 0.5625H1.125C0.975816 0.5625 0.832742 0.621763 0.727252 0.727252C0.621763 0.832742 0.5625 0.975816 0.5625 1.125V21.375C0.5625 21.5242 0.621763 21.6673 0.727252 21.7727C0.832742 21.8782 0.975816 21.9375 1.125 21.9375H13.2251C13.5395 22.8283 14.0976 23.613 14.8359 24.2023C14.8887 24.2446 14.9488 24.277 15.0131 24.2979L14.7192 25.4384L10.0287 27.0014C9.30582 27.0271 8.62058 27.33 8.11491 27.8471C7.60925 28.3643 7.32194 29.0562 7.3125 29.7795L6.80906 34.3125H3.9375C3.78832 34.3125 3.64524 34.3718 3.53975 34.4773C3.43426 34.5827 3.375 34.7258 3.375 34.875C3.375 35.0242 3.43426 35.1673 3.53975 35.2727C3.64524 35.3782 3.78832 35.4375 3.9375 35.4375H32.0625C32.2117 35.4375 32.3548 35.3782 32.4602 35.2727C32.5657 35.1673 32.625 35.0242 32.625 34.875C32.625 34.7258 32.5657 34.5827 32.4602 34.4773C32.3548 34.3718 32.2117 34.3125 32.0625 34.3125H29.1909L28.6875 29.7795C28.6781 29.0562 28.3907 28.3643 27.8851 27.8471C27.3794 27.33 26.6942 27.0271 25.9713 27.0014L21.2808 25.4384L20.9869 24.2979C21.0513 24.277 21.1113 24.2446 21.1641 24.2023C21.9024 23.613 22.4605 22.8283 22.7749 21.9375H34.875C35.0242 21.9375 35.1673 21.8782 35.2727 21.7727C35.3782 21.6673 35.4375 21.5242 35.4375 21.375V1.125C35.4375 0.975816 35.3782 0.832742 35.2727 0.727252C35.1673 0.621763 35.0242 0.5625 34.875 0.5625ZM25.6971 28.0962C25.7545 28.1152 25.8145 28.1249 25.875 28.125C26.3224 28.1256 26.7512 28.3036 27.0676 28.6199C27.3839 28.9363 27.5619 29.3651 27.5625 29.8125C27.5626 29.8332 27.5638 29.8538 27.566 29.8744L28.0589 34.3125H24.75V31.5C24.75 31.3508 24.6907 31.2077 24.5852 31.1023C24.4798 30.9968 24.3367 30.9375 24.1875 30.9375C24.0383 30.9375 23.8952 30.9968 23.7898 31.1023C23.6843 31.2077 23.625 31.3508 23.625 31.5V34.3125H12.375V31.5C12.375 31.3508 12.3157 31.2077 12.2102 31.1023C12.1048 30.9968 11.9617 30.9375 11.8125 30.9375C11.6633 30.9375 11.5202 30.9968 11.4148 31.1023C11.3093 31.2077 11.25 31.3508 11.25 31.5V34.3125H7.94109L8.43398 29.8744C8.43621 29.8538 8.43738 29.8332 8.4375 29.8125C8.4381 29.3651 8.61608 28.9363 8.93242 28.6199C9.24875 28.3036 9.67763 28.1256 10.125 28.125C10.1855 28.1249 10.2455 28.1152 10.3029 28.0962L15.2789 26.4375H20.7211L25.6971 28.0962ZM21.9375 20.25C21.9385 20.8162 21.8168 21.3758 21.5808 21.8904C21.3449 22.4051 21.0002 22.8625 20.5706 23.2312C20.4763 23.1657 20.3642 23.1307 20.2494 23.1307C20.1346 23.1308 20.0226 23.166 19.9283 23.2316C19.8341 23.2972 19.7622 23.3901 19.7223 23.4977C19.6824 23.6054 19.6764 23.7227 19.7051 23.8338L20.0869 25.3125H15.9131L16.2949 23.8338C16.3236 23.7227 16.3176 23.6054 16.2777 23.4977C16.2378 23.3901 16.1659 23.2972 16.0717 23.2316C15.9774 23.166 15.8654 23.1308 15.7506 23.1307C15.6358 23.1307 15.5237 23.1657 15.4294 23.2312C14.9998 22.8625 14.6551 22.4051 14.4192 21.8904C14.1832 21.3758 14.0615 20.8162 14.0625 20.25V18C14.0625 16.9557 14.4773 15.9542 15.2158 15.2158C15.9542 14.4773 16.9557 14.0625 18 14.0625C19.0443 14.0625 20.0458 14.4773 20.7842 15.2158C21.5227 15.9542 21.9375 16.9557 21.9375 18V20.25ZM34.3125 20.8125H23.0316C23.0521 20.6257 23.0625 20.4379 23.0625 20.25V18C23.0625 16.6573 22.5291 15.3697 21.5797 14.4203C20.6303 13.4709 19.3427 12.9375 18 12.9375C16.6573 12.9375 15.3697 13.4709 14.4203 14.4203C13.4709 15.3697 12.9375 16.6573 12.9375 18V20.25C12.9375 20.4379 12.9479 20.6257 12.9684 20.8125H1.6875V1.6875H34.3125V20.8125Z" fill="#2EBDB1"/>
<path d="M6.75 3.9375H18.5625C18.7117 3.9375 18.8548 3.87824 18.9602 3.77275C19.0657 3.66726 19.125 3.52418 19.125 3.375C19.125 3.22582 19.0657 3.08274 18.9602 2.97725C18.8548 2.87176 18.7117 2.8125 18.5625 2.8125H6.75C6.60082 2.8125 6.45774 2.87176 6.35225 2.97725C6.24676 3.08274 6.1875 3.22582 6.1875 3.375C6.1875 3.52418 6.24676 3.66726 6.35225 3.77275C6.45774 3.87824 6.60082 3.9375 6.75 3.9375Z" fill="#2EBDB1"/>
<path d="M6.75 5.625H16.875C17.0242 5.625 17.1673 5.56574 17.2727 5.46025C17.3782 5.35476 17.4375 5.21168 17.4375 5.0625C17.4375 4.91332 17.3782 4.77024 17.2727 4.66475C17.1673 4.55926 17.0242 4.5 16.875 4.5H6.75C6.60082 4.5 6.45774 4.55926 6.35225 4.66475C6.24676 4.77024 6.1875 4.91332 6.1875 5.0625C6.1875 5.21168 6.24676 5.35476 6.35225 5.46025C6.45774 5.56574 6.60082 5.625 6.75 5.625Z" fill="#2EBDB1"/>
<path d="M6.75 7.3125H12.375C12.5242 7.3125 12.6673 7.25324 12.7727 7.14775C12.8782 7.04226 12.9375 6.89918 12.9375 6.75C12.9375 6.60082 12.8782 6.45774 12.7727 6.35225C12.6673 6.24676 12.5242 6.1875 12.375 6.1875H6.75C6.60082 6.1875 6.45774 6.24676 6.35225 6.35225C6.24676 6.45774 6.1875 6.60082 6.1875 6.75C6.1875 6.89918 6.24676 7.04226 6.35225 7.14775C6.45774 7.25324 6.60082 7.3125 6.75 7.3125Z" fill="#2EBDB1"/>
<path d="M3.375 7.3125H5.0625C5.21168 7.3125 5.35476 7.25324 5.46025 7.14775C5.56574 7.04226 5.625 6.89918 5.625 6.75V3.375C5.625 3.22582 5.56574 3.08274 5.46025 2.97725C5.35476 2.87176 5.21168 2.8125 5.0625 2.8125H3.375C3.22582 2.8125 3.08274 2.87176 2.97725 2.97725C2.87176 3.08274 2.8125 3.22582 2.8125 3.375V6.75C2.8125 6.89918 2.87176 7.04226 2.97725 7.14775C3.08274 7.25324 3.22582 7.3125 3.375 7.3125ZM3.9375 3.9375H4.5V6.1875H3.9375V3.9375Z" fill="#2EBDB1"/>
<path d="M28.125 2.8125C27.1237 2.8125 26.145 3.10941 25.3124 3.66569C24.4799 4.22196 23.831 5.01261 23.4479 5.93766C23.0647 6.86272 22.9644 7.88062 23.1598 8.86264C23.3551 9.84467 23.8373 10.7467 24.5453 11.4547C25.2533 12.1627 26.1553 12.6449 27.1374 12.8402C28.1194 13.0356 29.1373 12.9353 30.0623 12.5521C30.9874 12.169 31.778 11.5201 32.3343 10.6876C32.8906 9.85505 33.1875 8.87627 33.1875 7.875C33.186 6.53282 32.6521 5.24605 31.703 4.29698C30.754 3.34791 29.4672 2.81404 28.125 2.8125ZM28.6875 3.97828C29.5282 4.10096 30.3068 4.49173 30.9075 5.09247C31.5083 5.69321 31.899 6.47183 32.0217 7.3125H28.6875V3.97828ZM24.1875 7.875C24.1889 6.92858 24.5305 6.01422 25.1501 5.29882C25.7697 4.58343 26.626 4.11473 27.5625 3.97828V7.64227L24.9729 10.2319C24.4623 9.55228 24.1866 8.72503 24.1875 7.875ZM28.125 11.8125C27.275 11.8134 26.4477 11.5377 25.7681 11.0271L28.3577 8.4375H32.0217C31.8853 9.37403 31.4166 10.2303 30.7012 10.8499C29.9858 11.4695 29.0714 11.8111 28.125 11.8125Z" fill="#2EBDB1"/>
<path d="M32.0625 14.0625H26.4375C26.2883 14.0625 26.1452 14.1218 26.0398 14.2273C25.9343 14.3327 25.875 14.4758 25.875 14.625C25.875 14.7742 25.9343 14.9173 26.0398 15.0227C26.1452 15.1282 26.2883 15.1875 26.4375 15.1875H32.0625C32.2117 15.1875 32.3548 15.1282 32.4602 15.0227C32.5657 14.9173 32.625 14.7742 32.625 14.625C32.625 14.4758 32.5657 14.3327 32.4602 14.2273C32.3548 14.1218 32.2117 14.0625 32.0625 14.0625Z" fill="#2EBDB1"/>
<path d="M32.0625 15.75H26.4375C26.3636 15.75 26.2905 15.7645 26.2222 15.7928C26.154 15.8211 26.092 15.8625 26.0397 15.9147L24.071 17.8835C23.9655 17.989 23.9062 18.1321 23.9062 18.2813C23.9062 18.4304 23.9655 18.5735 24.071 18.679C24.1765 18.7845 24.3196 18.8438 24.4687 18.8438C24.6179 18.8438 24.761 18.7845 24.8665 18.679L26.6705 16.875H32.0625C32.2117 16.875 32.3548 16.8157 32.4602 16.7102C32.5657 16.6048 32.625 16.4617 32.625 16.3125C32.625 16.1633 32.5657 16.0202 32.4602 15.9148C32.3548 15.8093 32.2117 15.75 32.0625 15.75Z" fill="#2EBDB1"/>
<path d="M12.375 14.625V9.5625C12.375 9.41332 12.3157 9.27024 12.2102 9.16475C12.1048 9.05926 11.9617 9 11.8125 9H10.125C9.97582 9 9.83274 9.05926 9.72725 9.16475C9.62176 9.27024 9.5625 9.41332 9.5625 9.5625V14.625H9V11.25C9 11.1008 8.94074 10.9577 8.83525 10.8523C8.72976 10.7468 8.58668 10.6875 8.4375 10.6875H6.75C6.60082 10.6875 6.45774 10.7468 6.35225 10.8523C6.24676 10.9577 6.1875 11.1008 6.1875 11.25V14.625H5.625V9C5.625 8.85082 5.56574 8.70774 5.46025 8.60225C5.35476 8.49676 5.21168 8.4375 5.0625 8.4375H3.375C3.22582 8.4375 3.08274 8.49676 2.97725 8.60225C2.87176 8.70774 2.8125 8.85082 2.8125 9V14.625C2.66332 14.625 2.52024 14.6843 2.41475 14.7898C2.30926 14.8952 2.25 15.0383 2.25 15.1875C2.25 15.3367 2.30926 15.4798 2.41475 15.5852C2.52024 15.6907 2.66332 15.75 2.8125 15.75H12.375C12.5242 15.75 12.6673 15.6907 12.7727 15.5852C12.8782 15.4798 12.9375 15.3367 12.9375 15.1875C12.9375 15.0383 12.8782 14.8952 12.7727 14.7898C12.6673 14.6843 12.5242 14.625 12.375 14.625ZM4.5 14.625H3.9375V9.5625H4.5V14.625ZM7.875 14.625H7.3125V11.8125H7.875V14.625ZM11.25 14.625H10.6875V10.125H11.25V14.625Z" fill="#2EBDB1"/>
<path d="M2.8125 17.4375H8.76705L11.1335 19.804C11.239 19.9095 11.3821 19.9688 11.5312 19.9688C11.6804 19.9688 11.8235 19.9095 11.929 19.804C12.0345 19.6985 12.0938 19.5554 12.0938 19.4063C12.0938 19.2571 12.0345 19.114 11.929 19.0085L9.39776 16.4772C9.34552 16.425 9.28351 16.3836 9.21526 16.3553C9.14702 16.327 9.07387 16.3125 9 16.3125H2.8125C2.66332 16.3125 2.52024 16.3718 2.41475 16.4773C2.30926 16.5827 2.25 16.7258 2.25 16.875C2.25 17.0242 2.30926 17.1673 2.41475 17.2727C2.52024 17.3782 2.66332 17.4375 2.8125 17.4375Z" fill="#2EBDB1"/>
<path d="M2.8125 19.125H5.0625C5.21168 19.125 5.35476 19.0657 5.46025 18.9602C5.56574 18.8548 5.625 18.7117 5.625 18.5625C5.625 18.4133 5.56574 18.2702 5.46025 18.1648C5.35476 18.0593 5.21168 18 5.0625 18H2.8125C2.66332 18 2.52024 18.0593 2.41475 18.1648C2.30926 18.2702 2.25 18.4133 2.25 18.5625C2.25 18.7117 2.30926 18.8548 2.41475 18.9602C2.52024 19.0657 2.66332 19.125 2.8125 19.125Z" fill="#2EBDB1"/>
</svg>
