<svg width="36" height="36" viewBox="0 0 36 36" fill="none" xmlns="http://www.w3.org/2000/svg">
<path d="M32.625 6.1875H32.0625V0.5625H3.9375V6.1875H3.375C1.82419 6.1875 0.5625 7.44919 0.5625 9V25.875C0.5625 27.4258 1.82419 28.6875 3.375 28.6875H14.625V29.8125H11.3827C10.7393 29.8125 10.161 30.1697 9.873 30.7451L9 32.4923V35.4375H27V32.4923L26.1264 30.7451C25.839 30.1697 25.2602 29.8125 24.6173 29.8125H21.375V28.6875H32.625C34.1758 28.6875 35.4375 27.4258 35.4375 25.875V9C35.4375 7.44919 34.1758 6.1875 32.625 6.1875ZM32.625 7.3125C33.5554 7.3125 34.3125 8.06962 34.3125 9V23.0625H32.0625V16.2962L32.3094 16.0487L31.5495 14.7184C31.608 14.5913 31.662 14.4624 31.7104 14.3331L33.1875 13.9292V10.8208L31.7109 10.4169C31.6626 10.2876 31.6086 10.1587 31.5501 10.0316L32.31 8.70131L32.0625 8.45381V7.3125H32.625ZM30.9066 15.8602L29.9227 16.8446L28.8096 16.2096L28.5367 16.3536C28.2836 16.4874 28.0238 16.5954 27.7656 16.6753L27.4708 16.7664L27.1327 18H25.7417L25.4036 16.7664L25.1089 16.6753C24.8507 16.5954 24.5908 16.4874 24.3377 16.3536L24.0649 16.2096L22.9517 16.8446L21.9679 15.8602L22.6035 14.7471L22.4584 14.4737C22.3256 14.2234 22.2171 13.9641 22.1366 13.7036L22.0461 13.4083L20.8125 13.0708V11.6792L22.0461 11.3417L22.1366 11.0464C22.2176 10.7859 22.3256 10.5266 22.4584 10.2763L22.6035 10.0029L21.9679 8.88975L22.9517 7.90538L24.0649 8.54044L24.3377 8.39644C24.5908 8.26256 24.8507 8.15456 25.1089 8.07469L25.4036 7.98356L25.7423 6.75H27.1333L27.4714 7.98356L27.7661 8.07469C28.0243 8.15456 28.2842 8.26256 28.5373 8.39644L28.8101 8.54044L29.9233 7.90538L30.9071 8.88975L30.2715 10.0029L30.4166 10.2763C30.5494 10.5266 30.6579 10.7859 30.7384 11.0464L30.8289 11.3417L32.0625 11.6792V13.0708L30.8289 13.4083L30.7384 13.7036C30.6574 13.9641 30.5494 14.2234 30.4166 14.4737L30.2715 14.7471L30.9066 15.8602ZM30.9375 1.6875V7.32881L30.1118 6.50306L28.7803 7.26244C28.6526 7.20394 28.5244 7.14994 28.3956 7.10156L27.9923 5.625H24.8833L24.4794 7.10156C24.3506 7.14994 24.2224 7.20338 24.0947 7.26244L22.7632 6.50306L20.5656 8.70131L21.3255 10.0316C21.267 10.1587 21.213 10.2876 21.1646 10.4169L19.6875 10.8208V13.9292L21.1641 14.3331C21.2124 14.4624 21.2664 14.5913 21.3249 14.7184L20.565 16.0487L22.7627 18.2469L24.0941 17.4876C24.2218 17.5461 24.3501 17.6001 24.4789 17.6484L24.8827 19.125H27.9917L28.3956 17.6484C28.5244 17.6001 28.6526 17.5466 28.7803 17.4876L30.1118 18.2469L30.9375 17.4212V23.0625H5.0625V1.6875H30.9375ZM13.5 24.1875H15.75V25.3125H14.0625C13.752 25.3125 13.5 25.0599 13.5 24.75V24.1875ZM16.875 24.1875H19.125V25.3125H16.875V24.1875ZM20.25 24.1875H22.5V24.75C22.5 25.0599 22.248 25.3125 21.9375 25.3125H20.25V24.1875ZM3.375 7.3125H3.9375V23.0625H1.6875V9C1.6875 8.06962 2.44463 7.3125 3.375 7.3125ZM11.3827 30.9375H14.625V32.0625H10.4726L10.8799 31.2486C10.9761 31.0568 11.1684 30.9375 11.3827 30.9375ZM10.125 34.3125V33.1875H25.875V34.3125H10.125ZM24.6173 30.9375C24.8316 30.9375 25.0245 31.0568 25.1207 31.2486L25.5274 32.0625H21.375V30.9375H24.6173ZM20.25 32.0625H15.75V28.6875H20.25V32.0625ZM32.625 27.5625H3.375C2.44463 27.5625 1.6875 26.8054 1.6875 25.875V24.1875H12.375V24.75C12.375 25.6804 13.1321 26.4375 14.0625 26.4375H21.9375C22.8679 26.4375 23.625 25.6804 23.625 24.75V24.1875H34.3125V25.875C34.3125 26.8054 33.5554 27.5625 32.625 27.5625Z" fill="#2EBDB1"/>
<path d="M26.4375 9C24.5762 9 23.0625 10.5137 23.0625 12.375C23.0625 14.2363 24.5762 15.75 26.4375 15.75C28.2988 15.75 29.8125 14.2363 29.8125 12.375C29.8125 10.5137 28.2988 9 26.4375 9ZM26.4375 14.625C25.1966 14.625 24.1875 13.6159 24.1875 12.375C24.1875 11.1341 25.1966 10.125 26.4375 10.125C27.6784 10.125 28.6875 11.1341 28.6875 12.375C28.6875 13.6159 27.6784 14.625 26.4375 14.625Z" fill="#2EBDB1"/>
<path d="M7.3125 8.4375H8.4375C9.05794 8.4375 9.5625 7.93294 9.5625 7.3125V3.9375C9.5625 3.31706 9.05794 2.8125 8.4375 2.8125H7.3125C6.69206 2.8125 6.1875 3.31706 6.1875 3.9375V7.3125C6.1875 7.93294 6.69206 8.4375 7.3125 8.4375ZM7.3125 3.9375H8.4375L8.43806 7.3125H7.3125V3.9375Z" fill="#2EBDB1"/>
<path d="M10.6875 2.8125H11.8125V8.4375H10.6875V2.8125Z" fill="#2EBDB1"/>
<path d="M7.3125 15.1875H8.4375C9.05794 15.1875 9.5625 14.6829 9.5625 14.0625V10.6875C9.5625 10.0671 9.05794 9.5625 8.4375 9.5625H7.3125C6.69206 9.5625 6.1875 10.0671 6.1875 10.6875V14.0625C6.1875 14.6829 6.69206 15.1875 7.3125 15.1875ZM7.3125 10.6875H8.4375V14.0625H7.3125V10.6875Z" fill="#2EBDB1"/>
<path d="M10.6875 9.5625H11.8125V15.1875H10.6875V9.5625Z" fill="#2EBDB1"/>
<path d="M14.0625 15.1875H15.1875C15.8079 15.1875 16.3125 14.6829 16.3125 14.0625V10.6875C16.3125 10.0671 15.8079 9.5625 15.1875 9.5625H14.0625C13.4421 9.5625 12.9375 10.0671 12.9375 10.6875V14.0625C12.9375 14.6829 13.4421 15.1875 14.0625 15.1875ZM14.0625 10.6875H15.1875V14.0625H14.0625V10.6875Z" fill="#2EBDB1"/>
<path d="M7.3125 21.9375H8.4375C9.05794 21.9375 9.5625 21.4329 9.5625 20.8125V17.4375C9.5625 16.8171 9.05794 16.3125 8.4375 16.3125H7.3125C6.69206 16.3125 6.1875 16.8171 6.1875 17.4375V20.8125C6.1875 21.4329 6.69206 21.9375 7.3125 21.9375ZM7.3125 17.4375H8.4375V20.8125H7.3125V17.4375Z" fill="#2EBDB1"/>
<path d="M11.8125 21.9375H12.9375C13.5579 21.9375 14.0625 21.4329 14.0625 20.8125V17.4375C14.0625 16.8171 13.5579 16.3125 12.9375 16.3125H11.8125C11.1921 16.3125 10.6875 16.8171 10.6875 17.4375V20.8125C10.6875 21.4329 11.1921 21.9375 11.8125 21.9375ZM11.8125 17.4375H12.9375V20.8125H11.8125V17.4375Z" fill="#2EBDB1"/>
<path d="M16.3125 8.4375H17.4375C18.0579 8.4375 18.5625 7.93294 18.5625 7.3125V3.9375C18.5625 3.31706 18.0579 2.8125 17.4375 2.8125H16.3125C15.6921 2.8125 15.1875 3.31706 15.1875 3.9375V7.3125C15.1875 7.93294 15.6921 8.4375 16.3125 8.4375ZM16.3125 3.9375H17.4375L17.4381 7.3125H16.3125V3.9375Z" fill="#2EBDB1"/>
<path d="M17.4375 9.5625H18.5625V15.1875H17.4375V9.5625Z" fill="#2EBDB1"/>
<path d="M15.1875 16.3125H16.3125V21.9375H15.1875V16.3125Z" fill="#2EBDB1"/>
<path d="M17.4375 16.3125H18.5625V21.9375H17.4375V16.3125Z" fill="#2EBDB1"/>
<path d="M12.9375 2.8125H14.0625V8.4375H12.9375V2.8125Z" fill="#2EBDB1"/>
</svg>
