<?xml version="1.0" encoding="utf-8"?>
<!-- Generator: Adobe Illustrator 25.0.0, SVG Export Plug-In . SVG Version: 6.00 Build 0)  -->
<svg version="1.1" xmlns="http://www.w3.org/2000/svg" xmlns:xlink="http://www.w3.org/1999/xlink" x="0px" y="0px"
	 viewBox="0 0 36 36" style="enable-background:new 0 0 36 36;" xml:space="preserve">
<style type="text/css">
	.st0{display:none;}
	.st1{display:inline;fill:#2EBDB1;}
	.st2{fill:#2EBDB1;}
</style>
<g id="Layer_1" class="st0">
	<path class="st1" d="M32.6,6.2h-0.6V0.6H3.9v5.6H3.4C1.8,6.2,0.6,7.4,0.6,9v16.9c0,1.6,1.3,2.8,2.8,2.8h11.2v1.1h-3.2
		c-0.6,0-1.2,0.4-1.5,0.9L9,32.5v2.9h18v-2.9l-0.9-1.7c-0.3-0.6-0.9-0.9-1.5-0.9h-3.2v-1.1h11.2c1.6,0,2.8-1.3,2.8-2.8V9
		C35.4,7.4,34.2,6.2,32.6,6.2z M32.6,7.3c0.9,0,1.7,0.8,1.7,1.7v14.1h-2.2v-6.8l0.2-0.2l-0.8-1.3c0.1-0.1,0.1-0.3,0.2-0.4l1.5-0.4
		v-3.1l-1.5-0.4c0-0.1-0.1-0.3-0.2-0.4l0.8-1.3l-0.2-0.2V7.3H32.6z M30.9,15.9l-1,1l-1.1-0.6l-0.3,0.1c-0.3,0.1-0.5,0.2-0.8,0.3
		l-0.3,0.1L27.1,18h-1.4l-0.3-1.2l-0.3-0.1c-0.3-0.1-0.5-0.2-0.8-0.3l-0.3-0.1L23,16.8l-1-1l0.6-1.1l-0.1-0.3
		c-0.1-0.3-0.2-0.5-0.3-0.8L22,13.4l-1.2-0.3v-1.4l1.2-0.3l0.1-0.3c0.1-0.3,0.2-0.5,0.3-0.8l0.1-0.3L22,8.9l1-1l1.1,0.6l0.3-0.1
		c0.3-0.1,0.5-0.2,0.8-0.3L25.4,8l0.3-1.2h1.4L27.5,8l0.3,0.1c0.3,0.1,0.5,0.2,0.8,0.3l0.3,0.1l1.1-0.6l1,1L30.3,10l0.1,0.3
		c0.1,0.3,0.2,0.5,0.3,0.8l0.1,0.3l1.2,0.3v1.4l-1.2,0.3l-0.1,0.3c-0.1,0.3-0.2,0.5-0.3,0.8l-0.1,0.3L30.9,15.9z M30.9,1.7v5.6
		l-0.8-0.8l-1.3,0.8c-0.1-0.1-0.3-0.1-0.4-0.2L28,5.6h-3.1l-0.4,1.5c-0.1,0-0.3,0.1-0.4,0.2l-1.3-0.8l-2.2,2.2l0.8,1.3
		c-0.1,0.1-0.1,0.3-0.2,0.4l-1.5,0.4v3.1l1.5,0.4c0,0.1,0.1,0.3,0.2,0.4L20.6,16l2.2,2.2l1.3-0.8c0.1,0.1,0.3,0.1,0.4,0.2l0.4,1.5
		H28l0.4-1.5c0.1,0,0.3-0.1,0.4-0.2l1.3,0.8l0.8-0.8v5.6H5.1V1.7H30.9z M13.5,24.2h2.2v1.1h-1.7c-0.3,0-0.6-0.3-0.6-0.6V24.2z
		 M16.9,24.2h2.2v1.1h-2.2V24.2z M20.2,24.2h2.2v0.6c0,0.3-0.3,0.6-0.6,0.6h-1.7V24.2z M3.4,7.3h0.6v15.8H1.7V9
		C1.7,8.1,2.4,7.3,3.4,7.3z M11.4,30.9h3.2v1.1h-4.2l0.4-0.8C11,31.1,11.2,30.9,11.4,30.9z M10.1,34.3v-1.1h15.8v1.1H10.1z
		 M24.6,30.9c0.2,0,0.4,0.1,0.5,0.3l0.4,0.8h-4.2v-1.1H24.6z M20.2,32.1h-4.5v-3.4h4.5V32.1z M32.6,27.6H3.4c-0.9,0-1.7-0.8-1.7-1.7
		v-1.7h10.7v0.6c0,0.9,0.8,1.7,1.7,1.7h7.9c0.9,0,1.7-0.8,1.7-1.7v-0.6h10.7v1.7C34.3,26.8,33.6,27.6,32.6,27.6z"/>
	<path class="st1" d="M26.4,9c-1.9,0-3.4,1.5-3.4,3.4s1.5,3.4,3.4,3.4s3.4-1.5,3.4-3.4S28.3,9,26.4,9z M26.4,14.6
		c-1.2,0-2.2-1-2.2-2.2s1-2.2,2.2-2.2s2.2,1,2.2,2.2S27.7,14.6,26.4,14.6z"/>
	<path class="st1" d="M7.3,8.4h1.1c0.6,0,1.1-0.5,1.1-1.1V3.9c0-0.6-0.5-1.1-1.1-1.1H7.3c-0.6,0-1.1,0.5-1.1,1.1v3.4
		C6.2,7.9,6.7,8.4,7.3,8.4z M7.3,3.9h1.1l0,3.4H7.3V3.9z"/>
	<path class="st1" d="M10.7,2.8h1.1v5.6h-1.1V2.8z"/>
	<path class="st1" d="M7.3,15.2h1.1c0.6,0,1.1-0.5,1.1-1.1v-3.4c0-0.6-0.5-1.1-1.1-1.1H7.3c-0.6,0-1.1,0.5-1.1,1.1v3.4
		C6.2,14.7,6.7,15.2,7.3,15.2z M7.3,10.7h1.1v3.4H7.3V10.7z"/>
	<path class="st1" d="M10.7,9.6h1.1v5.6h-1.1V9.6z"/>
	<path class="st1" d="M14.1,15.2h1.1c0.6,0,1.1-0.5,1.1-1.1v-3.4c0-0.6-0.5-1.1-1.1-1.1h-1.1c-0.6,0-1.1,0.5-1.1,1.1v3.4
		C12.9,14.7,13.4,15.2,14.1,15.2z M14.1,10.7h1.1v3.4h-1.1V10.7z"/>
	<path class="st1" d="M7.3,21.9h1.1c0.6,0,1.1-0.5,1.1-1.1v-3.4c0-0.6-0.5-1.1-1.1-1.1H7.3c-0.6,0-1.1,0.5-1.1,1.1v3.4
		C6.2,21.4,6.7,21.9,7.3,21.9z M7.3,17.4h1.1v3.4H7.3V17.4z"/>
	<path class="st1" d="M11.8,21.9h1.1c0.6,0,1.1-0.5,1.1-1.1v-3.4c0-0.6-0.5-1.1-1.1-1.1h-1.1c-0.6,0-1.1,0.5-1.1,1.1v3.4
		C10.7,21.4,11.2,21.9,11.8,21.9z M11.8,17.4h1.1v3.4h-1.1V17.4z"/>
	<path class="st1" d="M16.3,8.4h1.1c0.6,0,1.1-0.5,1.1-1.1V3.9c0-0.6-0.5-1.1-1.1-1.1h-1.1c-0.6,0-1.1,0.5-1.1,1.1v3.4
		C15.2,7.9,15.7,8.4,16.3,8.4z M16.3,3.9h1.1l0,3.4h-1.1V3.9z"/>
	<path class="st1" d="M17.4,9.6h1.1v5.6h-1.1V9.6z"/>
	<path class="st1" d="M15.2,16.3h1.1v5.6h-1.1V16.3z"/>
	<path class="st1" d="M17.4,16.3h1.1v5.6h-1.1V16.3z"/>
	<path class="st1" d="M12.9,2.8h1.1v5.6h-1.1V2.8z"/>
</g>
<g id="Layer_2">
	<g>
		<g>
			<path class="st2" d="M3.7,13.2c0-0.6-0.3-1-0.8-1.2c-0.2-0.1-0.3-0.1-0.4-0.2c-0.3-0.1-0.7-0.1-0.9,0.1c0,0,0,0,0,0.1
				c0,0,0,0,0,0c0,0,0,0,0-0.1c0,0,0,0.1,0,0.1c0,0,0,0,0.1,0c0.1,0,0.1,0,0.2,0c0.2,0,0.3,0.1,0.3,0.3c0,0.1,0,0.1,0,0.2
				c0,0.1-0.1,0.1-0.1,0.2c-0.1,0.1-0.3,0.1-0.4,0.1c-0.1-0.1-0.2-0.1-0.3-0.3c-0.1-0.1-0.1-0.3,0-0.4c0.1-0.2,0.2-0.3,0.3-0.4
				C2,11.3,2.5,11.3,3,11.5c0.5,0.2,0.8,0.5,1.1,1l0.3-0.7l0.5-0.2l-0.8,2l-0.5,0.2C3.7,13.6,3.7,13.4,3.7,13.2z"/>
			<path class="st2" d="M4.7,14.4L4.7,14.4c0,0,0,0.1,0,0.3c0,0.4-0.1,0.6-0.3,0.8c-0.2,0.2-0.5,0.3-0.7,0.3L3.6,16l-0.5,0.3
				l0.4-2.1l-1.8-0.4c-0.1,0-0.2,0-0.2,0.1c0,0.1,0,0.3,0.2,0.5c0.1,0.2,0.3,0.3,0.4,0.4l0,0c0-0.1,0.1-0.2,0.2-0.3
				c0.1-0.1,0.2-0.1,0.3-0.1c0,0,0.1,0,0.1,0c0.2,0.1,0.3,0.3,0.2,0.5c0,0.2-0.1,0.3-0.3,0.4c-0.1,0.1-0.3,0.1-0.5,0.1
				c-0.3-0.1-0.6-0.2-0.7-0.5C1.1,14.6,1,14.2,1,14c0.1-0.3,0.3-0.5,0.7-0.5c0.1,0,0.2,0,0.4,0.1l1.5,0.3l0.1-0.4l0.5-0.2l-0.4,2.2
				c0,0,0.1,0,0.1,0c0.2,0,0.2-0.1,0.3-0.3c0-0.1,0.1-0.3,0.1-0.6c0-0.1,0-0.2,0-0.2c0-0.2,0.1-0.4,0.3-0.6c0.2-0.2,0.4-0.2,0.6-0.2
				c0.1,0,0.2,0.1,0.3,0.2c0.1,0,0.1,0.1,0.1,0.2c0,0,0,0,0,0.1c0,0-0.1,0-0.2,0c0-0.1-0.1-0.1-0.1-0.1c-0.1,0-0.2,0-0.3,0.2
				C4.8,14,4.7,14.2,4.7,14.4z"/>
			<path class="st2" d="M4,18.7c0.2-0.3,0.4-0.6,0.4-0.9c0-0.2-0.1-0.4-0.2-0.7C4.2,17.1,4.1,17,4,16.9c-0.1-0.1-0.2-0.1-0.2-0.1
				l-0.2,0.1l0,0.5l-0.4,0.4L3.2,17l-3-0.2l0.4-0.4l2.6,0.2l0-0.4l0.4-0.4l0,0.7c0.1,0,0.1-0.1,0.2-0.1c0.1,0,0.1-0.1,0.2-0.1
				c0.1,0,0.2,0,0.3,0.1c0.2,0.1,0.3,0.2,0.4,0.3c0.1,0.1,0.2,0.2,0.2,0.4c0,0.1,0.1,0.2,0.1,0.4c0,0.4-0.2,0.8-0.5,1.2
				c-0.1,0.1-0.3,0.3-0.5,0.5l-0.4,0.1L4,18.7z"/>
			<path class="st2" d="M3.3,20.1l-3,0.3l0.4-0.4l1.6-0.1c0.1,0,0.1,0,0.2-0.1c0.1-0.1,0.1-0.1,0.1-0.2c0-0.1,0-0.1-0.1-0.1
				c-0.1,0-0.2,0-0.4,0l-0.1-0.3c0.1,0,0.2,0,0.2,0c0.1-0.1,0.2-0.1,0.2-0.2c0.1-0.1,0.1-0.2,0.1-0.4c0-0.1-0.1-0.2-0.2-0.3
				S2.1,18.1,2,18.1c-0.2,0-0.3,0.1-0.3,0.2c0,0,0.1,0,0.1,0c0.1,0,0.2,0,0.3,0.1c0.1,0.1,0.1,0.2,0.1,0.3c0,0.2-0.1,0.3-0.3,0.4
				c-0.1,0.1-0.3,0.1-0.3,0.1c-0.2-0.1-0.3-0.2-0.3-0.5c0-0.3,0-0.5,0.2-0.6c0.1-0.2,0.4-0.3,0.6-0.3c0.2,0,0.4,0,0.6,0.1
				C2.8,17.9,3,18.1,3,18.3c0,0.2,0,0.4-0.2,0.6l0,0c0.1,0,0.1,0.1,0.2,0.1C3,19.1,3,19.2,3,19.3c0,0.1,0,0.2-0.1,0.3
				c0,0-0.1,0.1-0.1,0.1c0,0,0,0,0,0.1l0.5,0l-0.2-2.2l0.4-0.4l0.3,3.4l-0.4,0.4L3.3,20.1z"/>
			<path class="st2" d="M3.7,22.2c-0.3-0.5-0.8-0.7-1.3-0.6c-0.2,0-0.3,0-0.4,0.1c-0.4,0.1-0.6,0.3-0.7,0.6c0,0,0,0,0,0.1
				c0,0,0,0,0,0c0,0-0.1,0-0.1-0.1c0,0,0,0.1,0,0.1c0,0,0,0,0.1-0.1c0.1-0.1,0.1-0.1,0.1-0.1c0.2-0.1,0.3,0,0.4,0.1
				c0,0.1,0.1,0.1,0.1,0.2c0,0.1,0,0.1,0,0.2c0,0.2-0.1,0.2-0.3,0.3c-0.1,0-0.3,0-0.4-0.1C1.1,22.8,1,22.7,1,22.6c0-0.2,0-0.4,0-0.5
				c0.2-0.4,0.6-0.7,1.1-0.9c0.5-0.1,1-0.1,1.5,0.2l-0.2-0.7l0.3-0.5l0.5,2.1L4,22.7C3.9,22.5,3.8,22.3,3.7,22.2z"/>
			<path class="st2" d="M4.8,24.5L2,25.7l0.1-0.3c0.2-0.3,0.4-0.5,0.5-0.8c0.1-0.2,0.1-0.3,0.1-0.5c0-0.1-0.1-0.3-0.1-0.5l0.3-0.6
				c0.3,0.1,0.6,0.3,1,0.5c0-0.1,0-0.1,0-0.2c0,0,0-0.2-0.1-0.4c0-0.2,0-0.3,0-0.4l0.1-0.1L4.1,22l1.2,2.8l-0.2,0.5L4.8,24.5z
				 M4.6,24.2l-0.3-0.8c0,0.2-0.1,0.4-0.3,0.8c-0.1,0-0.3-0.1-0.4-0.2c-0.1,0-0.2-0.1-0.4-0.2c0,0.4-0.1,0.7-0.3,1.1L4.6,24.2z"/>
			<path class="st2" d="M5.4,25.4c0.2-0.2,0.5-0.3,0.7-0.5l0,0.3c-0.1,0.1-0.2,0.2-0.2,0.2c0,0,0,0.1,0,0.1L6,25.8l-0.1,0.5
				l-0.4-0.7l-2.6,1.6L3,26.8l1.8-1.1C4.9,25.6,5,25.5,5,25.5c0.1-0.2,0.1-0.3,0-0.5c0,0,0,0,0-0.1l0.1-0.5c0.2,0.2,0.3,0.4,0.3,0.5
				C5.5,25,5.5,25.2,5.4,25.4z"/>
			<path class="st2" d="M6.8,28l0.3-0.3c0.1-0.1,0.4-0.4,0.7-0.6l0,0.4c-0.1,0-0.2,0.1-0.2,0.2c0,0,0,0,0,0.1
				c0.1,0.1,0.2,0.2,0.3,0.3l0,0.6l-0.5-0.6l-2.4,2L5,29.4l1.2-1c0.1-0.1,0.2-0.2,0.3-0.4c0.1-0.2,0.1-0.3,0.1-0.5
				c0-0.1,0-0.2-0.1-0.3C6.3,27,6.1,27,5.9,27c0,0,0.1,0.1,0.1,0.1c0.2,0.3,0.2,0.6,0,0.8c-0.2,0.2-0.6,0.3-1.2,0.2L5,27.5
				c0.1,0,0.3,0,0.5,0c0.3,0,0.4,0,0.4,0c0,0,0-0.1,0-0.1c0,0-0.1-0.1-0.3-0.1s-0.3-0.1-0.3-0.2c0,0,0-0.1-0.1-0.1
				c0-0.2,0-0.4,0.2-0.5c0.1-0.1,0.2-0.1,0.4-0.2c0.2,0,0.3,0,0.4,0c0.1,0.1,0.3,0.2,0.4,0.3C7,27.2,7.1,27.6,6.8,28z"/>
			<path class="st2" d="M8.1,28.7c0.2-0.2,0.3-0.4,0.6-0.7l0,0.3c-0.1,0.1-0.1,0.2-0.1,0.3c0,0,0,0.1,0,0.1L8.9,29l0,0.6L8.3,29
				l-2.1,2.3l0-0.6l1.4-1.6c0.1-0.1,0.1-0.2,0.1-0.2c0-0.2,0-0.3-0.1-0.5c0,0,0,0-0.1-0.1l0-0.6C7.8,28,7.9,28.1,8,28.2
				C8.1,28.4,8.2,28.5,8.1,28.7z"/>
			<path class="st2" d="M10,30.4c-0.5-0.1-1,0-1.4,0.4c-0.1,0.1-0.2,0.2-0.3,0.3c-0.2,0.3-0.3,0.6-0.1,0.9c0,0,0,0,0.1,0.1
				c0,0,0,0,0,0c0,0-0.1,0-0.2,0c0,0,0.1,0,0.1,0c0,0,0,0,0-0.1c0-0.1,0-0.1,0-0.2c0.1-0.1,0.2-0.2,0.4-0.2c0.1,0,0.1,0,0.2,0.1
				C8.9,31.8,9,31.9,9,32c0.1,0.1,0.1,0.3,0,0.4c-0.1,0.1-0.2,0.2-0.4,0.2c-0.2,0-0.3,0-0.4-0.1c-0.2-0.1-0.3-0.2-0.3-0.4
				c-0.1-0.5,0-0.9,0.3-1.4c0.3-0.4,0.7-0.7,1.2-0.8l-0.6-0.4l-0.1-0.6l1.8,1.3l0.1,0.5C10.4,30.6,10.2,30.5,10,30.4z"/>
			<path class="st2" d="M12.3,31.5L11,34.3L10.9,34c0-0.4,0-0.7-0.1-0.9c-0.1-0.2-0.2-0.3-0.3-0.4c-0.1-0.1-0.2-0.2-0.4-0.3
				l-0.2-0.7c0.3-0.1,0.6-0.2,1.1-0.3c0,0-0.1-0.1-0.1-0.1s-0.1-0.1-0.3-0.3c-0.2-0.1-0.3-0.2-0.3-0.3l0-0.1L10.1,30l2.7,1.3
				l0.2,0.5L12.3,31.5z M12,31.4L11.2,31c0.1,0.2,0.2,0.4,0.3,0.8c-0.1,0-0.3,0.1-0.5,0.2c-0.1,0-0.2,0.1-0.4,0.2
				c0.3,0.3,0.4,0.6,0.5,1L12,31.4z"/>
			<path class="st2" d="M13.3,31.8c0.1-0.3,0.1-0.5,0.2-0.9l0.2,0.2c0,0.1,0,0.2,0,0.3c0,0,0,0.1,0,0.1l0.4,0.1l0.3,0.5L13.6,32
				l-1,3l-0.2-0.5l0.7-2.1c0-0.1,0-0.2,0-0.3c-0.1-0.2-0.2-0.3-0.3-0.4c0,0,0,0-0.1,0l-0.3-0.5c0.3,0.1,0.4,0.1,0.6,0.2
				C13.2,31.5,13.3,31.6,13.3,31.8z"/>
			<path class="st2" d="M16.2,32.9l0-0.4c0-0.2,0.1-0.5,0.1-0.9l0.2,0.3c-0.1,0.1-0.1,0.2,0,0.3c0,0,0,0,0.1,0.1
				c0.1,0,0.3,0,0.4,0.1l0.3,0.5l-0.8-0.1l-0.5,3l-0.4-0.5l0.3-1.5c0-0.1,0-0.3-0.1-0.5c-0.1-0.2-0.1-0.3-0.2-0.4
				c-0.1-0.1-0.2-0.2-0.3-0.2c-0.2,0-0.4,0-0.6,0.2c0.1,0,0.1,0,0.2,0c0.4,0.1,0.5,0.3,0.5,0.6c0,0.2-0.3,0.6-0.8,0.9l-0.3-0.5
				c0.1-0.1,0.2-0.2,0.4-0.3c0.2-0.2,0.3-0.3,0.3-0.3c0,0,0-0.1-0.1-0.1c0,0-0.1,0-0.3,0.1c-0.2,0.1-0.3,0.1-0.3,0.1
				c0,0-0.1,0-0.1-0.1c-0.1-0.1-0.2-0.3-0.2-0.5c0-0.1,0.1-0.2,0.2-0.4c0.1-0.1,0.2-0.2,0.3-0.3c0.1-0.1,0.3-0.1,0.5,0
				C15.8,32.1,16.1,32.4,16.2,32.9z"/>
			<path class="st2" d="M21.3,31.4c-0.3-0.2-0.6-0.3-1-0.2c-0.2,0-0.4,0.1-0.6,0.3c0,0.1-0.1,0.1-0.2,0.2c-0.1,0.1-0.1,0.2-0.1,0.2
				l0.1,0.2l0.5,0l0.4,0.4l-0.8,0.1l0.3,3l-0.4-0.4l-0.2-2.6l-0.4,0l-0.4-0.4l0.7-0.1c-0.1,0-0.1-0.1-0.2-0.1C19,32,19,32,19,31.9
				c0-0.1,0-0.2,0-0.3c0.1-0.2,0.2-0.3,0.3-0.4c0.1-0.1,0.2-0.2,0.4-0.3c0.1-0.1,0.2-0.1,0.4-0.1c0.4,0,0.8,0.1,1.2,0.3
				c0.1,0.1,0.3,0.2,0.6,0.4l0.2,0.4L21.3,31.4z"/>
			<path class="st2" d="M21.5,33.3c0.1,0.1,0.2,0.2,0.2,0.2c0,0,0,0.1,0,0.1c0,0.1,0,0.2,0,0.3c-0.1,0.1-0.2,0.2-0.3,0.2
				c-0.4,0.1-0.6-0.1-0.7-0.4c0-0.2,0-0.4,0.1-0.5c0.1-0.2,0.3-0.3,0.5-0.3c0.4-0.1,0.7,0.1,1.1,0.5l0,0.1l-0.3-1.2l-1.9,0.4
				l-0.5-0.3l3-0.7l0.5,0.3L22.5,32l0.7,3l-0.3-0.2c0,0,0-0.1,0-0.1c0-0.1-0.1-0.3-0.2-0.5c-0.1-0.2-0.2-0.4-0.3-0.5
				c-0.1-0.1-0.2-0.2-0.4-0.3C21.8,33.3,21.7,33.3,21.5,33.3z"/>
			<path class="st2" d="M25,31l1.2,2.8l-0.3-0.1c-0.2-0.1-0.3-0.2-0.3-0.3c-0.1-0.1-0.2-0.1-0.4-0.2c-0.2-0.1-0.4-0.1-0.5-0.1
				c-0.1,0-0.3,0.1-0.5,0.1l-0.6-0.3c0.1-0.3,0.2-0.5,0.3-0.7c0,0,0.1-0.1,0.2-0.3c0,0-0.1,0-0.1,0c-0.1,0-0.2,0-0.5,0.1
				c-0.2,0.1-0.4,0-0.5-0.1l-0.5-0.2l2.8-1.2l0.5,0.2L25,31z M24.6,31.2l-0.7,0.3c0.1,0,0.1,0,0.2,0c0,0,0.2,0.1,0.6,0.3
				c0,0.1-0.1,0.3-0.2,0.4c0,0.1-0.1,0.2-0.2,0.4c0.4,0,0.7,0.1,1.1,0.3L24.6,31.2z M25,34c-0.1,0-0.2,0-0.3,0s-0.2-0.1-0.2-0.2
				c0-0.1,0-0.2,0-0.3c0-0.1,0.1-0.2,0.2-0.2c0.1,0,0.2,0,0.3,0c0.1,0,0.2,0.1,0.2,0.2c0,0.1,0,0.2,0,0.3C25.2,33.9,25.1,34,25,34z"
				/>
			<path class="st2" d="M27,30.5c0,0,0.1,0.1,0.1,0.1c0.1,0.1,0.1,0.2,0.1,0.3c0,0.1-0.1,0.2-0.1,0.3c-0.1,0.1-0.3,0.1-0.4,0.1
				c-0.1,0-0.2-0.1-0.3-0.3c-0.1-0.3,0-0.5,0.2-0.7c0.1-0.1,0.3-0.2,0.5-0.2c0.2,0,0.4,0,0.5,0c0.1-0.1,0.1-0.3,0-0.4
				c0,0-0.1-0.1-0.2-0.1c0,0-0.1,0-0.1,0l-1.7,1.2l-0.6-0.1l2.9-2.1l0.6,0.1l-0.9,0.6l-0.1-0.1c0,0,0.1,0,0.3,0.1
				c0.1,0.1,0.2,0.2,0.3,0.2c0.1,0.1,0.1,0.2,0.1,0.3c0,0,0,0.1,0,0.4c-0.2,0.1-0.4,0.1-0.5,0.1l0,0c-0.1,0-0.2,0-0.3,0
				C27.1,30.4,27,30.4,27,30.5z"/>
			<path class="st2" d="M28.1,30.2L28.1,30.2c0,0,0,0.1-0.1,0.1c0,0.1,0,0.1,0,0.3c0,0.1,0,0.1,0,0.2c0,0,0,0,0,0
				c0.1-0.1,0.1-0.1,0.2-0.1c0.1,0,0.1,0,0.2,0.1c0.1,0.1,0.1,0.2,0.1,0.3c0,0.1-0.1,0.2-0.2,0.3c-0.1,0.1-0.2,0.1-0.3,0.1
				c-0.1,0-0.2,0-0.3,0s-0.1-0.1-0.2-0.1c-0.1-0.1-0.1-0.2-0.2-0.3c0,0,0-0.2,0-0.4c0-0.1,0.1-0.2,0.1-0.3c0-0.1,0.1-0.2,0.2-0.3
				c0.2-0.2,0.4-0.2,0.6-0.1c0,0,0.2,0.2,0.4,0.4l1.1,1.2l-0.3,0c-0.1,0-0.2-0.1-0.3-0.1c-0.1,0-0.3,0-0.4,0.1
				c-0.1,0-0.1,0.1-0.2,0.2c-0.1,0.1-0.2,0.2-0.2,0.2c-0.1,0.1-0.2,0.2-0.4,0.2c-0.2,0.1-0.3,0.1-0.4,0c-0.2-0.1-0.4-0.2-0.5-0.3
				c-0.1-0.1-0.2-0.3-0.3-0.5c0-0.1,0-0.1,0-0.1l0.2,0c0.1,0.1,0.1,0.2,0.2,0.3c0.1,0.1,0.3,0.2,0.4,0.2c0.1,0,0.3-0.2,0.6-0.4
				c0.1-0.1,0.1-0.1,0.1-0.1c0.2-0.1,0.3-0.2,0.4-0.2c0,0,0,0,0.1,0l-0.7-0.8c0,0-0.1-0.1-0.1-0.1C28.2,30.2,28.2,30.1,28.1,30.2
				L28.1,30.2z"/>
			<path class="st2" d="M29.7,28.7C29.6,28.7,29.6,28.7,29.7,28.7c-0.2-0.2-0.2-0.3-0.1-0.5c0.1-0.1,0.3-0.2,0.4-0.1
				c0.1,0,0.1,0,0.1,0.1c0.1,0.1,0.2,0.2,0.1,0.4c0,0.2-0.1,0.3-0.2,0.4c-0.2,0.2-0.4,0.2-0.6,0.2c-0.2,0-0.4-0.1-0.6-0.2
				c-0.2-0.2-0.3-0.4-0.4-0.6c-0.1-0.3,0-0.5,0.2-0.8c0.1-0.1,0.1-0.1,0.2-0.1c0.1,0,0.2-0.1,0.2-0.1c0.2,0,0.4,0,0.7,0.1
				c-0.1-0.1-0.2-0.1-0.3-0.2c-0.1-0.1-0.4-0.3-0.7-0.6c0.1,0,0.1,0,0.2,0c0.1,0,0.2,0,0.2,0c0.1,0,0.1,0.1,0.2,0.1c0,0,0.1,0,0.2,0
				l0.2-0.3l0.6,0l-0.6,0.6l2.2,2l-0.6,0l-1.2-1.1c-0.2-0.2-0.4-0.2-0.6-0.2c-0.2,0-0.4,0.1-0.5,0.2c-0.1,0.1-0.1,0.2-0.1,0.4
				c0,0.1,0.1,0.3,0.2,0.3c0.1,0.1,0.2,0.1,0.3,0.1C29.6,28.7,29.6,28.7,29.7,28.7z"/>
			<path class="st2" d="M32,23.1L32,23.1c0.2-0.2,0.4-0.4,0.6-0.5c0.3-0.1,0.5-0.1,0.7-0.1c0.1,0,0.2,0,0.2,0.1
				c0.1,0.1,0.3,0.2,0.3,0.3c0.1,0.1,0.1,0.3,0,0.4c0,0.1-0.1,0.2-0.2,0.2s-0.2,0.1-0.3,0c-0.1,0-0.2-0.2-0.2-0.3c0-0.1,0-0.1,0-0.2
				c0-0.1,0.1-0.2,0.3-0.2c0,0,0,0,0.1,0c0,0,0,0.1,0,0.2c0,0-0.1-0.1-0.1-0.1c-0.1-0.1-0.3-0.1-0.5,0c-0.2,0.1-0.3,0.2-0.4,0.4
				l2.2,0.9l-0.3,0.1c-0.2,0-0.3,0-0.4,0c-0.1,0-0.2,0-0.4,0.1c-0.2,0.1-0.3,0.1-0.4,0.2c-0.2,0.1-0.4,0.3-0.5,0.6l-0.7,0.2
				c-0.2-0.6-0.2-1.2-0.2-1.9l-0.1,0l-0.7,1.6l-0.5,0.2l1.4-3.4l0.5-0.2L32,23.1z M32.5,24.4c0,0.1,0,0.2,0.1,0.3
				c0.3-0.3,0.6-0.4,1-0.5l-1.1-0.5C32.5,24,32.5,24.2,32.5,24.4z"/>
			<path class="st2" d="M32.1,19.1c-0.3,0.2-0.5,0.5-0.5,0.9c0,0.2,0,0.4,0.1,0.7c0,0.1,0.1,0.1,0.2,0.2c0.1,0.1,0.2,0.2,0.2,0.2
				l0.2,0l0.1-0.5l0.5-0.3L32.7,21l2.9,0.7l-0.5,0.3l-2.5-0.6l-0.1,0.4L32,22.1l0.2-0.7c-0.1,0-0.1,0.1-0.2,0.1c-0.1,0-0.1,0-0.2,0
				c-0.1,0-0.2-0.1-0.2-0.1c-0.1-0.1-0.2-0.3-0.3-0.4c-0.1-0.1-0.1-0.3-0.1-0.4c0-0.1,0-0.3,0-0.4c0.1-0.4,0.3-0.7,0.7-1.1
				c0.1-0.1,0.3-0.2,0.6-0.4l0.4,0L32.1,19.1z"/>
			<path class="st2" d="M33.1,20.3L33.1,20.3c0,0-0.1,0.1-0.2,0.2l-0.1,0.1l-0.4,0.3l0.3-3.2l0.4-0.4l-0.1,0.8l3,0.3l-0.3,0.2
				c-0.4,0.1-0.6,0.1-0.7,0.2c-0.2,0.2-0.3,0.3-0.3,0.4c0.2,0.1,0.2,0.3,0.2,0.5c0,0.2-0.1,0.4-0.3,0.5c0,0-0.1,0-0.1,0
				c-0.1,0-0.1,0-0.1,0c-0.2,0-0.3-0.1-0.4-0.2c-0.1-0.1-0.1-0.3-0.1-0.5c0-0.1,0-0.1,0-0.1c-0.2,0-0.4,0.1-0.5,0.2
				c0,0-0.1,0.1-0.2,0.3C33.2,20.2,33.2,20.3,33.1,20.3z M33,18.6l-0.1,1.1c0.2-0.2,0.3-0.3,0.4-0.4c0.2-0.1,0.3-0.2,0.5-0.2
				c0.3,0,0.4,0,0.5,0c0.1-0.1,0.3-0.2,0.5-0.3L33,18.6z"/>
			<path class="st2" d="M32.8,15l3-0.3l-0.4,0.4l-1.8,0.2c-0.1,0-0.2,0.1-0.3,0.2c-0.2,0.1-0.2,0.3-0.2,0.4c0,0.1,0.1,0.2,0.2,0.2
				c0.2-0.3,0.4-0.5,0.5-0.5c0,0,0.1,0,0.2,0c0.2,0,0.2,0.2,0.3,0.4c0,0.2-0.1,0.3-0.2,0.4c0.1,0,0.2,0.1,0.2,0.2
				c0.1,0.1,0.1,0.2,0.1,0.3c0,0.1,0,0.2-0.1,0.3c-0.1,0.1-0.2,0.1-0.3,0.1c-0.1,0-0.2,0-0.4-0.1c-0.1-0.1-0.2-0.2-0.3-0.3
				c0,0-0.1,0.1-0.2,0.1c0,0.1-0.1,0.2-0.1,0.3c0-0.1,0,0,0,0.3l-0.4,0.4l-0.1-0.7c0-0.1,0-0.3,0.1-0.4c0.1-0.1,0.1-0.2,0.1-0.2
				c0-0.1,0.1-0.1,0.2-0.1c-0.2-0.1-0.4-0.3-0.5-0.5c0-0.1,0-0.1,0-0.1c0-0.1,0.2-0.4,0.6-0.7l0.1-0.1l-0.6,0.1l-0.7,0.1
				c0.1-0.1,0.2-0.2,0.2-0.3c0,0,0.1,0,0.1-0.1c0,0,0.1,0,0.1,0c0,0,0.1-0.1,0.1-0.1l0-0.3l0.4-0.4L32.8,15z"/>
			<path class="st2" d="M33.4,13.2c0.1-0.1,0.1-0.2,0.2-0.2c0,0,0.1,0,0.1-0.1c0.1,0,0.2,0,0.3,0c0.1,0.1,0.2,0.1,0.2,0.3
				c0.1,0.4,0,0.6-0.4,0.8c-0.2,0.1-0.4,0-0.5-0.1c-0.2-0.1-0.3-0.2-0.3-0.4c-0.1-0.4,0-0.7,0.4-1.1l0.1-0.1l-1.2,0.4l0.6,1.8
				l-0.3,0.5l-0.9-3l0.3-0.5l0.2,0.8l3-0.9l-0.2,0.3c0,0-0.1,0-0.1,0c-0.1,0-0.3,0.1-0.5,0.3c-0.2,0.1-0.3,0.2-0.5,0.3
				c-0.1,0.1-0.2,0.2-0.3,0.4C33.4,12.9,33.4,13.1,33.4,13.2z"/>
		</g>
		<g>
			<path class="st2" d="M10.2,3.4l1.7,2.6l-0.4-0.2c-0.6-0.4-1.2-0.5-1.8-0.2L8.9,5.4c0.1-0.4,0.3-0.6,0.4-0.8
				C9.5,4.3,9.7,4,9.9,3.7L9.9,3.7l-1.5,1L7.8,4.5l2.5-1.6L10.9,3L10.2,3.4z M10.2,4.2C10,4.5,9.9,4.8,9.7,5.1c0.4,0,0.8,0,1.2,0.1
				L10.2,4.2z"/>
			<path class="st2" d="M11.3,2.8C11.2,2.6,11,2.3,10.9,2l0.3,0.1c0.1,0.1,0.1,0.2,0.2,0.3c0,0,0.1,0,0.1,0.1l0.4-0.2l0.5,0.2
				l-0.7,0.3l1.3,2.8l-0.5-0.2l-0.9-2c0-0.1-0.1-0.2-0.2-0.2C11.2,3.1,11,3,10.9,3.1c0,0,0,0-0.1,0L10.2,3c0.2-0.1,0.4-0.2,0.5-0.2
				C11,2.7,11.1,2.7,11.3,2.8z"/>
			<path class="st2" d="M13.8,3.2c-0.1,0.1-0.1,0.1-0.3,0.1c-0.2,0.1-0.4,0-0.5-0.1c-0.2-0.1-0.3-0.2-0.4-0.4
				c-0.1-0.2,0-0.4,0.1-0.5C12.8,2.1,12.9,2,13.1,2c0.2-0.1,0.4,0,0.5,0.1c0.2,0.1,0.3,0.2,0.3,0.4c0,0.1,0,0.2,0,0.4
				C13.9,3,13.9,3.1,13.8,3.2z M14.8,4.7c-0.3-0.1-0.8-0.3-1.5-0.5L13,3.4c0.2,0.1,0.6,0.2,0.9,0.4c0.2,0.1,0.6,0.4,1.3,0.8L15.3,5
				L14.8,4.7z M13.4,2.3c-0.1,0-0.2,0.1-0.2,0.3c-0.1,0.1-0.1,0.2,0,0.3C13.1,3,13.2,3,13.2,3c0.1,0,0.1-0.1,0.2-0.2
				c0.1-0.1,0.1-0.2,0.1-0.2c0,0,0-0.1,0-0.2C13.5,2.3,13.4,2.3,13.4,2.3z"/>
			<path class="st2" d="M17.1,1.4l0.4,3L17,4.1l-0.2-1.6c0-0.1-0.1-0.1-0.1-0.2c-0.1-0.1-0.2-0.1-0.2-0.1c-0.1,0-0.1,0-0.1,0.1
				c0,0.1,0,0.2,0,0.4l-0.3,0.1c0-0.1,0-0.2,0-0.2c-0.1-0.1-0.2-0.2-0.2-0.2c-0.1-0.1-0.2-0.1-0.4-0.1c-0.1,0-0.2,0.1-0.3,0.2
				c-0.1,0.1-0.1,0.2-0.1,0.3c0,0.2,0.1,0.3,0.2,0.3c0,0,0-0.1,0-0.1c0-0.1,0-0.2,0.1-0.3s0.2-0.1,0.3-0.1c0.2,0,0.3,0.1,0.4,0.2
				c0.1,0.1,0.1,0.3,0.1,0.3c-0.1,0.2-0.2,0.3-0.4,0.4c-0.3,0-0.5,0-0.7-0.2c-0.2-0.1-0.3-0.3-0.3-0.6c0-0.2,0-0.4,0.1-0.6
				c0.1-0.2,0.3-0.3,0.5-0.3c0.2,0,0.4,0,0.6,0.2l0,0c0-0.1,0.1-0.1,0.1-0.2c0.1-0.1,0.1-0.1,0.2-0.1c0.1,0,0.2,0,0.3,0.1
				c0,0,0.1,0.1,0.1,0.1c0,0,0,0,0.1,0l-0.1-0.5l-2.2,0.3l-0.5-0.3L17.4,1l0.5,0.3L17.1,1.4z"/>
			<path class="st2" d="M18.4,1.3c0-0.3,0-0.6,0-0.9l0.2,0.2c0,0.1,0,0.2,0.1,0.3c0,0,0,0.1,0.1,0.1l0.4,0l0.4,0.4l-0.8,0l-0.1,3.1
				l-0.4-0.4l0.1-2.2c0-0.1,0-0.2-0.1-0.3c-0.1-0.2-0.2-0.2-0.4-0.3c0,0,0,0-0.1,0L17.4,1c0.3,0,0.5,0,0.6,0
				C18.2,1,18.3,1.1,18.4,1.3z"/>
			<path class="st2" d="M21,1.7c-0.5,0.1-0.9,0.5-1,1c0,0.2-0.1,0.3-0.1,0.4c0,0.4,0.1,0.7,0.3,0.9c0,0,0,0,0.1,0c0,0,0,0,0,0
				c0,0,0,0.1-0.1,0.1c0,0,0.1,0,0.1,0c0,0,0,0-0.1-0.1c0-0.1-0.1-0.1-0.1-0.2c0-0.2,0.1-0.3,0.3-0.4c0.1,0,0.1,0,0.2,0
				c0.1,0,0.1,0,0.2,0.1C21,3.7,21,3.8,21,4c0,0.1-0.1,0.3-0.2,0.4c-0.1,0.1-0.3,0.1-0.4,0.1c-0.2,0-0.3-0.1-0.4-0.2
				c-0.3-0.4-0.4-0.8-0.4-1.4c0.1-0.5,0.3-0.9,0.7-1.3l-0.8-0.1L19.1,1l2.2,0.3l0.3,0.4C21.4,1.7,21.2,1.7,21,1.7z"/>
			<path class="st2" d="M22.4,1.9l-0.3,1c0.1-0.1,0.3-0.1,0.5-0.2c0.2-0.1,0.5-0.2,0.9-0.2l0.4,0.6c-0.4,0.4-0.7,0.8-0.8,1.2
				c0,0.1,0,0.2-0.1,0.3c0,0-0.1,0.3-0.1,0.7L22.7,5c0-0.5,0.1-1,0.2-1.2c0.1-0.2,0.2-0.4,0.3-0.6c-0.5,0-1,0.3-1.3,0.8l-0.3-0.6
				L22,1.8l-0.2-0.1l-0.3-0.5l3,0.9l0.3,0.5L22.4,1.9z"/>
			<path class="st2" d="M27.1,4l-1.5,2.6l-0.2-0.6l0.9-1.6c0-0.1,0-0.2,0-0.4c0-0.2-0.1-0.4-0.2-0.4c-0.1-0.1-0.2,0-0.3,0
				c0.1,0.3,0.2,0.6,0.1,0.7c0,0-0.1,0.1-0.1,0.2c-0.1,0.1-0.3,0.1-0.4,0c-0.1-0.1-0.2-0.2-0.2-0.4c-0.1,0-0.2,0.1-0.3,0.1
				c-0.1,0-0.2,0-0.3-0.1c-0.1-0.1-0.2-0.1-0.2-0.3c0-0.1,0-0.2,0.1-0.3c0.1-0.1,0.2-0.2,0.3-0.3c0.1-0.1,0.3-0.1,0.4-0.1
				c0-0.1,0-0.1,0-0.2c0-0.1-0.1-0.2-0.2-0.2c0.1,0.1,0,0-0.3-0.2l-0.2-0.5l0.6,0.4c0.1,0.1,0.2,0.2,0.3,0.3C25.6,3,25.6,3,25.6,3
				c0,0.1,0,0.1,0,0.2c0.2-0.1,0.4-0.1,0.7-0.1c0.1,0,0.1,0,0.1,0c0.1,0.1,0.2,0.4,0.2,0.9l0,0.1L27,3.6L27.3,3
				c0.1,0.2,0.1,0.3,0.1,0.4c0,0,0,0.1,0,0.1c0,0,0,0,0,0.1c0,0.1,0,0.1,0.1,0.2l0.2,0.1l0.2,0.5L27.1,4z"/>
		</g>
		<g>
			<g>
				<polygon class="st2" points="16.5,15 15.5,15 15.8,6 				"/>
				<path class="st2" d="M16.3,30.3c-0.8,0.1-1.4-0.5-1.5-1.3c0-0.1,0-0.1,0-0.2l0.3-7.1h1.1v-4.9h0.4l0.9,12
					C17.7,29.6,17.1,30.2,16.3,30.3z"/>
				<path class="st2" d="M12.6,15.6c-0.2-0.2-0.5-0.4-0.9-0.5L12,7.7L12.6,15.6z"/>
				<path class="st2" d="M12.8,18.3C12.8,18.2,12.8,18.2,12.8,18.3c-0.1-0.1,0-0.1,0-0.2L12.8,18.3z"/>
				<path class="st2" d="M12.4,28.8c-0.7,0-1.2-0.4-1.3-1.1c0,0,0-0.1,0-0.1l0.3-5.8c0.7-0.1,1.3-0.4,1.6-1l0.5,6.8
					C13.5,28.2,13.1,28.8,12.4,28.8z"/>
				<path class="st2" d="M27.9,24.8c-0.6,0-1.1-0.4-1.2-1c0-0.1,0-0.1,0-0.2l0.2-2.2c0.6-0.4,1-1,1.1-1.9l0.1-0.5h-1l0.1-1.5h0.9
					L28,17.2c-0.1-0.5-0.3-1.1-0.7-1.5l0.5-5.5l1,13.5C28.9,24.3,28.5,24.8,27.9,24.8z"/>
				<path class="st2" d="M8.7,25.6c-0.6,0.1-1.1-0.4-1.2-1c0-0.1,0-0.1,0-0.2l0.8-13.7L8.8,15H8.2v6.8h1.2l0.3,2.6
					C9.8,25,9.3,25.6,8.7,25.6z"/>
				<polygon class="st2" points="10,21.8 10.8,21.8 10.5,27 				"/>
				<path class="st2" d="M10.8,19.1C10.8,19.1,10.9,19.1,10.8,19.1l0.1,0.8c0,0,0,0,0,0h-0.6v-0.8H10.8z"/>
				<path class="st2" d="M10.9,16.8c0.1,0,0.1,0,0.1,0l0,0.6c0,0-0.1,0-0.1,0h-0.7v-0.6L10.9,16.8L10.9,16.8z"/>
				<path class="st2" d="M11.3,9.6L11.1,15c0,0-0.1,0-0.1,0H9.3L8.8,9.7C8.7,9,9.2,8.4,9.9,8.3c0.7-0.1,1.3,0.4,1.4,1.2
					C11.3,9.5,11.3,9.6,11.3,9.6z"/>
				<polygon class="st2" points="14.4,21.8 14.5,21.8 14.2,29.3 13.3,16.8 14.4,16.8 				"/>
				<path class="st2" d="M15.1,7.1L14.8,15h-1.7l-0.6-7.8c-0.1-0.7,0.5-1.3,1.2-1.4c0.7-0.1,1.3,0.5,1.4,1.2
					C15.1,7,15.1,7.1,15.1,7.1z"/>
				<path class="st2" d="M19.4,6.4L19,15h-1.1v6.8h0.8l-0.3,7.4l-0.8-12.3h0.3V15h-0.5l-0.6-8.5c0-0.7,0.5-1.3,1.2-1.4
					c0.7,0,1.3,0.5,1.4,1.2C19.4,6.3,19.4,6.4,19.4,6.4z"/>
				<path class="st2" d="M23.4,7.3l-0.5,9.5c0,0,0,0,0,0c-0.2,0.5-0.3,1-0.3,1.6c0,0.4,0,0.8,0.1,1.2v0l-0.5,9.7l-0.5-7.5h0.8
					l-0.1-0.5c-0.1-0.2-0.1-0.7-0.1-1v-0.3c0-0.7-0.1-1.2-0.4-1.5c0.3-0.3,0.5-0.7,0.5-1.4c0-0.9-0.5-1.6-1.2-1.9l-0.5-7.8
					c0-0.7,0.5-1.3,1.2-1.4c0.7,0,1.3,0.5,1.4,1.2C23.4,7.2,23.4,7.2,23.4,7.3z"/>
				<path class="st2" d="M25.6,21.9c0.3,0,0.5-0.1,0.8-0.1L26,27L25.6,21.9z"/>
				<path class="st2" d="M26.7,17.6l-0.1,1.5h-0.3l-0.1,0.3C26,19.9,25.8,20,25.5,20c0,0,0,0,0,0l-0.3-3.3c0.1,0,0.2-0.1,0.3-0.1
					c0.3,0,0.6,0.1,0.7,0.6l0.1,0.3H26.7z"/>
				<path class="st2" d="M27.2,9.7l-0.4,5.6c-0.4-0.2-0.8-0.3-1.3-0.3c-0.2,0-0.3,0-0.5,0l-0.4-5.3c-0.1-0.7,0.5-1.3,1.2-1.4
					c0.7-0.1,1.3,0.5,1.4,1.2C27.2,9.5,27.2,9.6,27.2,9.7z"/>
				<path class="st2" d="M6.1,14.6l0.3,5.6c0,0.2-0.2,0.4-0.4,0.4c-0.2,0-0.4-0.2-0.4-0.4c0,0,0,0,0-0.1L6.1,14.6z"/>
				<path class="st2" d="M7.5,13.2L6.9,23l-0.6-9.7c0-0.3,0.2-0.6,0.6-0.6C7.2,12.6,7.5,12.8,7.5,13.2C7.5,13.2,7.5,13.2,7.5,13.2z"
					/>
				<path class="st2" d="M29.7,13.2L29.1,23l-0.6-9.7c0-0.3,0.2-0.6,0.6-0.6C29.4,12.6,29.7,12.8,29.7,13.2
					C29.7,13.2,29.7,13.2,29.7,13.2z"/>
				<path class="st2" d="M30.1,14.6l0.3,5.6c0,0.2-0.2,0.4-0.4,0.4c-0.2,0-0.4-0.2-0.4-0.4c0,0,0,0,0-0.1L30.1,14.6z"/>
				<path class="st2" d="M23.4,16l0.4-8.3l0.5,7.5C23.9,15.3,23.6,15.6,23.4,16z"/>
				<path class="st2" d="M24.1,28.6c-0.7,0-1.2-0.4-1.3-1.1c0,0,0-0.1,0-0.1l0.3-6.9c0.1,0.1,0.1,0.2,0.2,0.3c0.4,0.5,0.9,0.9,1.5,1
					l0.4,5.6C25.3,28,24.8,28.6,24.1,28.6z"/>
				<path class="st2" d="M20.3,16.8c0.3,0,0.4,0.1,0.4,0.4c0,0.3,0,0.4-0.4,0.4h-0.5v-0.7H20.3z"/>
				<path class="st2" d="M20.5,15h-0.8l0.5-9.2l0.7,9.2C20.7,15,20.6,15,20.5,15z"/>
				<path class="st2" d="M20.5,30.3C19.7,30.3,19,29.8,19,29c0-0.1,0-0.1,0-0.2l0.3-7.1h0.4v-2.4h0.3c0.4,0,0.5,0.1,0.5,0.1
					c0.1,0.1,0.1,0.2,0.1,0.5V20c0,0.7,0,1.2,0.1,1.5l0.1,0.3h0.4l0.5,7C21.8,29.6,21.2,30.2,20.5,30.3z"/>
			</g>
			<g>
				<path class="st2" d="M8.6,15.4H11c1.3,0,1.8,0.8,1.8,1.5c0,0.7-0.3,1.1-0.7,1.3c0.4,0.2,0.8,0.6,0.8,1.4c0,1-0.7,1.8-1.9,1.8
					H8.6V15.4z M10.8,17.7c0.5,0,0.8-0.3,0.8-0.7c0-0.4-0.3-0.7-0.7-0.7H9.8v1.4L10.8,17.7L10.8,17.7z M9.8,20.4h1
					c0.6,0,0.9-0.3,0.9-0.8c0-0.5-0.3-0.8-0.9-0.8h-1V20.4z"/>
				<path class="st2" d="M14.8,16.4h-1.5v-1.1h4.2v1.1h-1.5v4.9h-1.1L14.8,16.4L14.8,16.4z"/>
				<path class="st2" d="M19.3,19v2.4h-1.1v-6h2.2c1.1,0,1.7,0.7,1.7,1.6c0,0.8-0.4,1.2-0.7,1.4c0.3,0.1,0.6,0.4,0.6,1.5v0.3
					c0,0.4,0,0.9,0.1,1.1h-1C21,21.1,21,20.7,21,20v-0.1c0-0.7-0.1-1-1-1L19.3,19L19.3,19z M19.3,17.9h0.9c0.6,0,0.8-0.3,0.8-0.8
					c0-0.5-0.3-0.8-0.8-0.8h-0.9L19.3,17.9L19.3,17.9z"/>
				<path class="st2" d="M27.6,19.5c-0.2,1.1-0.9,1.9-2.2,1.9c-1.6,0-2.4-1.3-2.4-3.1c0-1.6,0.8-3.1,2.4-3.1c1.3,0,2,0.9,2.1,1.9
					h-1.1c-0.1-0.5-0.4-0.9-1.1-0.9c-0.9,0-1.3,1-1.3,2.1c0,1,0.3,2.1,1.3,2.1c0.7,0,0.9-0.6,1-0.9L27.6,19.5L27.6,19.5z"/>
			</g>
		</g>
	</g>
</g>
<g id="Layer_3">
</g>
<g id="Layer_4">
</g>
</svg>
