<svg width="36" height="36" viewBox="0 0 36 36" fill="none" xmlns="http://www.w3.org/2000/svg">
<path d="M16.875 4.5H20.8125V9C20.8125 9.14918 20.8718 9.29226 20.9773 9.39775C21.0827 9.50324 21.2258 9.5625 21.375 9.5625H25.875C26.0242 9.5625 26.1673 9.50324 26.2727 9.39775C26.3782 9.29226 26.4375 9.14918 26.4375 9V4.5H30.375V10.125H31.5V3.9375C31.5 3.78832 31.4407 3.64524 31.3352 3.53975C31.2298 3.43426 31.0867 3.375 30.9375 3.375H1.6875C1.53832 3.375 1.39524 3.43426 1.28975 3.53975C1.18426 3.64524 1.125 3.78832 1.125 3.9375V33.1875C1.125 33.3367 1.18426 33.4798 1.28975 33.5852C1.39524 33.6907 1.53832 33.75 1.6875 33.75H19.125V32.625H16.875V19.125H19.125V18H16.875V4.5ZM25.3125 8.4375H21.9375V4.5H25.3125V8.4375ZM7.3125 4.5H10.6875V8.4375H7.3125V4.5ZM6.1875 4.5V9C6.1875 9.14918 6.24676 9.29226 6.35225 9.39775C6.45774 9.50324 6.60082 9.5625 6.75 9.5625H11.25C11.3992 9.5625 11.5423 9.50324 11.6477 9.39775C11.7532 9.29226 11.8125 9.14918 11.8125 9V4.5H15.75V18H2.25V4.5H6.1875ZM7.3125 19.125H10.6875V23.0625H7.3125V19.125ZM15.75 32.625H2.25V19.125H6.1875V23.625C6.1875 23.7742 6.24676 23.9173 6.35225 24.0227C6.45774 24.1282 6.60082 24.1875 6.75 24.1875H11.25C11.3992 24.1875 11.5423 24.1282 11.6477 24.0227C11.7532 23.9173 11.8125 23.7742 11.8125 23.625V19.125H15.75V32.625Z" fill="#2EBDB1"/>
<path d="M13.5 15.75H14.625V16.875H13.5V15.75Z" fill="#2EBDB1"/>
<path d="M11.25 15.75H12.375V16.875H11.25V15.75Z" fill="#2EBDB1"/>
<path d="M13.5 30.375H14.625V31.5H13.5V30.375Z" fill="#2EBDB1"/>
<path d="M11.25 30.375H12.375V31.5H11.25V30.375Z" fill="#2EBDB1"/>
<path d="M6.1875 1.125H23.0625V2.25H6.1875V1.125Z" fill="#2EBDB1"/>
<path d="M24.1875 1.125H25.3125V2.25H24.1875V1.125Z" fill="#2EBDB1"/>
<path d="M32.625 11.25H22.5C21.9035 11.2507 21.3316 11.4879 20.9098 11.9097C20.4879 12.3316 20.2507 12.9035 20.25 13.5V32.625C20.2507 33.2215 20.4879 33.7934 20.9098 34.2153C21.3316 34.6371 21.9035 34.8743 22.5 34.875H32.625C33.2215 34.8743 33.7934 34.6371 34.2153 34.2153C34.6371 33.7934 34.8743 33.2215 34.875 32.625V13.5C34.8743 12.9035 34.6371 12.3316 34.2153 11.9097C33.7934 11.4879 33.2215 11.2507 32.625 11.25ZM33.75 32.625C33.7496 32.9233 33.631 33.2092 33.4201 33.4201C33.2092 33.631 32.9233 33.7496 32.625 33.75H22.5C22.2017 33.7496 21.9158 33.631 21.7049 33.4201C21.494 33.2092 21.3754 32.9233 21.375 32.625V13.5C21.3754 13.2017 21.494 12.9158 21.7049 12.7049C21.9158 12.494 22.2017 12.3754 22.5 12.375H32.625C32.9233 12.3754 33.2092 12.494 33.4201 12.7049C33.631 12.9158 33.7496 13.2017 33.75 13.5V32.625Z" fill="#2EBDB1"/>
<path d="M25.875 13.5H27V14.625H25.875V13.5Z" fill="#2EBDB1"/>
<path d="M28.125 13.5H29.25V14.625H28.125V13.5Z" fill="#2EBDB1"/>
<path d="M27 31.5H28.125V32.625H27V31.5Z" fill="#2EBDB1"/>
<path d="M27.5625 21.1421L26.5451 20.1247L25.7496 20.9202L27.1647 22.3353C27.217 22.3875 27.279 22.429 27.3472 22.4572C27.4155 22.4855 27.4886 22.5001 27.5625 22.5001C27.6364 22.5001 27.7095 22.4855 27.7778 22.4572C27.846 22.429 27.908 22.3875 27.9603 22.3353L32.4603 17.8353L31.6647 17.0398L27.5625 21.1421Z" fill="#2EBDB1"/>
<path d="M27.5625 24.75C28.6064 24.7488 29.6073 24.3336 30.3454 23.5954C31.0836 22.8573 31.4988 21.8564 31.5 20.8125H30.375C30.3747 21.4312 30.1703 22.0325 29.7934 22.5232C29.4166 23.0139 28.8884 23.3666 28.2908 23.5266C27.6931 23.6866 27.0594 23.6449 26.4878 23.4081C25.9162 23.1712 25.4387 22.7524 25.1294 22.2166C24.8201 21.6808 24.6961 21.0579 24.7768 20.4444C24.8575 19.831 25.1383 19.2614 25.5757 18.8238C26.0131 18.3862 26.5826 18.1051 27.196 18.0242C27.8094 17.9432 28.4324 18.0669 28.9683 18.376L29.5317 17.4021C29.0086 17.1003 28.4232 16.9228 27.8206 16.8834C27.218 16.844 26.6144 16.9437 26.0565 17.1748C25.4986 17.406 25.0013 17.7624 24.6032 18.2164C24.205 18.6704 23.9166 19.2099 23.7603 19.7932C23.604 20.3765 23.5839 20.988 23.7017 21.5803C23.8194 22.1726 24.0718 22.7298 24.4394 23.209C24.8069 23.6882 25.2798 24.0763 25.8213 24.3436C26.3629 24.6108 26.9586 24.7498 27.5625 24.75Z" fill="#2EBDB1"/>
<path d="M23.0625 26.4375H24.1875V27.5625H23.0625V26.4375Z" fill="#2EBDB1"/>
<path d="M25.3125 26.4375H32.0625V27.5625H25.3125V26.4375Z" fill="#2EBDB1"/>
<path d="M23.0625 28.6875H32.0625V29.8125H23.0625V28.6875Z" fill="#2EBDB1"/>
</svg>
