<svg xmlns="http://www.w3.org/2000/svg" viewBox="0 0 1280.905 219.133"><defs><style>.a{fill:#ffdf5f;}.b{fill:#15a0db;}</style></defs><g transform="translate(-320.147 -431.184)"><path class="a" d="M51.13,28.156V18.222c0-1.753-1.753-2.922-3.506-2.922s-3.506,1.169-3.506,2.922v9.934H22.5c-1.169,0-1.753,0-2.337.584a8.32,8.32,0,0,0-5.259,7.6V89.513a7.874,7.874,0,0,0,7.6,8.181H51.13c3.506-.584,6.428-4.09,6.428-8.181V36.337C57.558,32.246,54.636,28.74,51.13,28.156Z" transform="translate(392.316 505.29)"/><path class="a" d="M118.023,18.163a3.725,3.725,0,0,0-3.506,0L89.974,33.941H70.106A3.77,3.77,0,0,0,66.6,37.447V66.08a3.77,3.77,0,0,0,3.506,3.506H89.974l24.543,15.778a2.922,2.922,0,0,0,3.506,0,3.214,3.214,0,0,0,1.753-2.922V21.085C120.361,19.916,119.192,18.748,118.023,18.163Z" transform="translate(642.728 517.035)"/><path class="a" d="M70.24,17.6a32.139,32.139,0,1,0,0,64.279,12.867,12.867,0,0,0,4.675-.584l13.44,13.44A3.036,3.036,0,0,0,90.692,95.9h1.169a3.213,3.213,0,0,0,1.753-2.922V72.529a31.365,31.365,0,0,0,8.765-22.205C102.379,32.209,88.355,17.6,70.24,17.6Z" transform="translate(504.686 516.43)"/><path class="b" d="M704.147,54.929a52.144,52.144,0,0,0-26.3,7.012,53.224,53.224,0,0,0-19.868,17.531c-8.181-16.362-22.79-25.127-44.411-25.127a61.314,61.314,0,0,0-27.465,6.428,54.714,54.714,0,0,0-18.7,15.193V66.032a7.989,7.989,0,0,0-8.181-8.181H508.973a7.989,7.989,0,0,0-8.181,8.181V93.5a53.85,53.85,0,0,0-18.115-21.621q-22.79-17.531-63.11-17.531-39.444,0-63.11,17.531a56.681,56.681,0,0,0-19.284,24.543,56.681,56.681,0,0,0-19.284-24.543q-22.79-17.531-63.11-17.531-39.444,0-63.11,17.531c-8.181,6.428-14.609,14.025-18.7,23.374a55.747,55.747,0,0,0-14.025-23.374q-17.531-17.531-45.58-17.531-24.543,0-40.32,14.025V8.181a7.5,7.5,0,0,0-2.337-5.844A9.736,9.736,0,0,0,64.279,0H8.181A7.5,7.5,0,0,0,2.337,2.337,7.5,7.5,0,0,0,0,8.181V208.03a7.5,7.5,0,0,0,2.337,5.844c1.753,1.169,3.506,2.337,5.844,2.337H60.189a7.989,7.989,0,0,0,8.181-8.181v-7.012c10.518,12.271,25.712,18.115,45,18.115,18.7,0,33.893-5.844,45.58-16.946,5.844-5.844,10.518-14.025,14.025-23.374,11.687,26.88,39.152,40.32,81.81,40.32,43.827,0,71.291-14.025,82.394-41.489,11.1,27.465,39.152,41.489,82.394,41.489,41.489,0,68.954-12.856,81.225-37.983v26.88a7.989,7.989,0,0,0,8.181,8.181H563.9a7.989,7.989,0,0,0,8.181-8.181V123.883A20.786,20.786,0,0,1,575,112.78a10.514,10.514,0,0,1,8.765-4.09c4.09,0,7.012,1.169,8.765,4.09,2.337,2.337,2.922,6.428,2.922,11.1v83.563a7.989,7.989,0,0,0,8.181,8.181H657.4a7.989,7.989,0,0,0,8.181-8.181V123.883c0-4.675,1.169-8.765,2.922-11.1a11.422,11.422,0,0,1,8.765-4.09c4.09,0,7.012,1.169,8.765,4.09,2.337,2.337,2.922,6.428,2.922,11.1v83.563a7.989,7.989,0,0,0,8.181,8.181H750.9a7.989,7.989,0,0,0,8.181-8.181V122.714q0-34.185-15.778-50.839C733.949,60.189,720.509,54.929,704.147,54.929ZM129.727,163.619c0,4.09-2.922,7.6-6.428,8.181H94.665a7.874,7.874,0,0,1-7.6-8.181V110.443a8.32,8.32,0,0,1,5.259-7.6,3.513,3.513,0,0,1,2.337-.584h21.621V92.328c0-1.753,1.753-2.922,3.506-2.922s3.506,1.169,3.506,2.922v9.934c3.506.584,6.428,4.09,6.428,8.181v53.176Zm148.426-5.844V179.4a3.213,3.213,0,0,1-1.753,2.922h-1.169a4.43,4.43,0,0,1-2.337-1.169l-13.44-13.44c-1.753,0-2.922.584-4.675.584a32.892,32.892,0,1,1,23.374-10.518Zm164.788,11.1a3.214,3.214,0,0,1-1.753,2.922,2.922,2.922,0,0,1-3.506,0l-24.543-15.778H393.271a3.77,3.77,0,0,1-3.506-3.506V123.883a3.77,3.77,0,0,1,3.506-3.506h19.868L437.682,104.6a3.725,3.725,0,0,1,3.506,0,3.214,3.214,0,0,1,1.753,2.922v61.357Z" transform="translate(320.147 431.184)"/><path class="b" d="M166.94,39.618c8.181-8.181,19.284-12.271,33.893-12.271,10.518,0,19.868,2.337,26.88,7.012s12.271,12.271,16.362,22.205c1.169,2.337,1.753,4.09,2.922,4.675a8.446,8.446,0,0,0,4.09,1.169h4.091a6.033,6.033,0,0,0,6.428-6.428,43.925,43.925,0,0,0-7.6-21.621,45.82,45.82,0,0,0-20.452-16.946c-9.35-4.675-19.868-7.012-33.308-7.012q-30.679,0-47.333,17.531c-11.1,11.687-16.946,27.465-17.531,48.5L134.8,88.119l.584,11.687c.584,21.037,6.428,36.814,17.531,48.5s26.88,17.531,47.333,17.531q19.284,0,33.308-7.012c9.35-4.675,15.778-9.934,20.452-16.946a43.925,43.925,0,0,0,7.6-21.621c0-1.753-.584-2.922-1.753-4.675a6.635,6.635,0,0,0-4.675-1.753h-4.091A6.811,6.811,0,0,0,247,115c-1.169.584-1.753,2.337-2.922,4.675-4.09,10.518-9.35,18.115-16.362,22.205-7.012,4.675-15.778,7.012-26.88,7.012-14.024,0-25.127-4.09-33.893-12.271-8.181-8.181-12.856-21.037-13.44-37.983l-.584-9.934.584-10.518C154.084,60.654,158.174,48.383,166.94,39.618Z" transform="translate(973.057 481.556)"/><path class="b" d="M223.063,10.5c-11.687,0-22.206,2.337-30.386,6.428a52.249,52.249,0,0,0-18.115,14.609c-4.09,5.844-5.844,10.518-5.844,14.609,0,1.753.584,2.922,1.753,4.675a6.635,6.635,0,0,0,4.675,1.753h4.09a8.445,8.445,0,0,0,4.09-1.169c1.169-.584,1.753-2.337,2.922-4.675q2.63-7.889,12.271-14.025c6.428-4.09,14.609-5.844,24.543-5.844,13.44,0,23.374,2.922,30.386,8.181,6.428,5.844,9.934,13.44,9.934,23.959v9.934l-46.748,6.428c-18.115,2.337-32.14,7.6-42.658,15.193-10.518,8.181-15.778,18.115-15.778,30.971a36.72,36.72,0,0,0,7.012,21.621A45.8,45.8,0,0,0,184.5,158.342a66.478,66.478,0,0,0,26.3,5.844c13.44,0,24.543-2.337,33.308-6.428,8.181-4.675,14.609-9.934,18.7-15.778v13.44a6.033,6.033,0,0,0,6.428,6.428h5.259a6.033,6.033,0,0,0,6.428-6.428V60.17a51.955,51.955,0,0,0-13.44-35.646C259.293,15.175,244.1,10.5,223.063,10.5Zm40.32,84.731c0,16.946-4.675,30.386-14.024,39.736s-21.037,14.025-35.061,14.025q-14.9,0-26.3-7.012c-7.6-4.675-11.1-11.687-11.1-20.452,0-7.6,4.09-14.609,12.271-19.284,8.181-5.259,20.452-8.765,36.23-11.1l37.983-5.259v9.35Z" transform="translate(1086.396 482.041)"/><path class="b" d="M288.853,95.816c-7.6-6.428-20.452-12.271-38.568-15.778-12.271-2.922-21.621-5.259-28.049-7.6s-11.1-5.259-13.44-8.181-3.506-7.012-3.506-11.687a21.889,21.889,0,0,1,8.765-18.115c5.844-4.675,14.609-7.012,25.712-7.012,10.518,0,18.115,1.753,23.374,4.675s9.35,7.012,13.44,12.856c1.753,2.337,3.506,3.506,6.428,3.506h4.675a6.635,6.635,0,0,0,4.675-1.753,5.3,5.3,0,0,0,1.753-4.09c0-3.506-1.753-7.6-5.844-12.856s-9.934-9.934-18.115-13.44c-8.181-4.09-18.115-5.844-29.8-5.844-11.1,0-20.452,1.753-28.633,5.844A47.475,47.475,0,0,0,193.6,31.537,35.713,35.713,0,0,0,187.759,51.4c0,10.518,2.922,18.7,9.35,25.712,6.428,6.428,18.115,11.687,35.646,15.778a291.6,291.6,0,0,1,30.386,8.181c7.012,2.337,11.687,5.259,14.609,8.181a19.253,19.253,0,0,1,4.675,12.856c0,8.181-3.506,14.609-11.1,19.284s-17.531,7.012-29.218,7.012c-10.518,0-19.284-1.753-25.712-5.259a45.631,45.631,0,0,1-15.778-14.025,13.157,13.157,0,0,0-2.922-2.922,6.327,6.327,0,0,0-3.506-.584h-4.675c-1.753,0-2.922.584-4.675,1.753-1.169,1.169-2.337,2.337-2.337,4.09,0,3.506,2.337,7.6,6.428,12.856,4.675,5.259,11.1,9.934,19.868,14.609s19.284,6.428,32.139,6.428c12.271,0,22.79-1.753,31.555-5.844s15.193-8.765,19.868-15.193a35.462,35.462,0,0,0,7.012-21.621C299.955,111.009,296.449,102.244,288.853,95.816Z" transform="translate(1204.094 482.041)"/><path class="b" d="M289.685,188.593H273.907c-8.181,0-14.609-2.922-18.115-8.181s-5.259-13.44-5.259-23.959V72.891h36.23a6.033,6.033,0,0,0,6.428-6.428v-4.09a6.033,6.033,0,0,0-6.428-6.428h-36.23V8.028a6.635,6.635,0,0,0-1.753-4.675A6.635,6.635,0,0,0,244.1,1.6h-5.259a6.635,6.635,0,0,0-4.675,1.753,6.635,6.635,0,0,0-1.753,4.675v48.5h-22.79a6.033,6.033,0,0,0-6.428,6.428v4.09a6.033,6.033,0,0,0,6.428,6.428h22.79v84.731c0,14.609,2.922,26.88,9.35,35.061,5.844,8.765,16.362,12.856,30.971,12.856h17.531A6.033,6.033,0,0,0,296.7,199.7v-4.09a6.635,6.635,0,0,0-1.753-4.675A7.138,7.138,0,0,0,289.685,188.593Z" transform="translate(1304.356 438.933)"/></g></svg>