<svg width="36" height="36" viewBox="0 0 36 36" fill="none" xmlns="http://www.w3.org/2000/svg">
<path d="M9.79819 6.71702C9.79819 8.37745 11.149 9.72837 12.8095 9.72837C13.4705 9.72837 14.0632 9.51159 14.5236 9.1016C14.6137 9.02123 14.6995 8.93285 14.7784 8.83877C14.9657 8.61567 14.9365 8.28302 14.7134 8.09585C14.4902 7.90861 14.1576 7.93779 13.9705 8.16089C13.9242 8.21602 13.8743 8.26756 13.8221 8.31403C13.5541 8.55267 13.2135 8.67368 12.8095 8.67368C11.7307 8.67368 10.8529 7.79597 10.8529 6.71702C10.8529 5.63808 11.7306 4.76037 12.8095 4.76037C13.2017 4.76037 13.5799 4.87582 13.9032 5.09421C14.1446 5.25727 14.4724 5.19377 14.6353 4.95239C14.7984 4.71108 14.7349 4.38328 14.4935 4.22023C13.9952 3.88357 13.4129 3.70568 12.8095 3.70568C11.149 3.70568 9.79819 5.05659 9.79819 6.71702ZM19.1636 5.52417C19.1636 4.52145 18.3151 3.70568 17.2721 3.70568H15.9519C15.9517 3.70568 15.9514 3.70568 15.9511 3.70568C15.9508 3.70568 15.9505 3.70568 15.9503 3.70568C15.6591 3.70568 15.423 3.94179 15.423 4.23302V9.20095C15.423 9.49219 15.6591 9.7283 15.9503 9.7283C16.2416 9.7283 16.4777 9.49219 16.4777 9.20095V7.54657L18.2404 9.54935C18.3446 9.66783 18.4901 9.7283 18.6365 9.7283C18.7602 9.7283 18.8845 9.68499 18.9847 9.59681C19.2033 9.40437 19.2246 9.07116 19.0321 8.85255L17.6676 7.3023C18.5213 7.12695 19.1636 6.39647 19.1636 5.52417ZM17.2721 6.28791C17.0902 6.28791 16.7662 6.28931 16.4854 6.29072C16.4839 6.01552 16.4825 5.7003 16.4825 5.52417C16.4825 5.37525 16.4817 5.04823 16.4808 4.76037H17.272C17.7256 4.76037 18.1088 5.11017 18.1088 5.52417C18.1088 5.93817 17.7257 6.28791 17.2721 6.28791ZM28.9345 20.833V19.0327C28.9345 17.5789 27.7517 16.396 26.2978 16.396H18.5273L18.5273 13.434H25.6725C27.1264 13.434 28.3092 12.2512 28.3092 10.7973V2.63672C28.3092 1.1828 27.1264 0 25.6725 0H15.3566C15.0654 0 14.8293 0.236109 14.8293 0.527344C14.8293 0.818578 15.0654 1.05469 15.3566 1.05469H25.6724C26.5448 1.05469 27.2545 1.76435 27.2545 2.63672V10.7973C27.2545 11.6697 26.5448 12.3794 25.6724 12.3794H10.3276C9.4552 12.3794 8.74554 11.6697 8.74554 10.7973V2.63672C8.74554 1.76435 9.4552 1.05469 10.3276 1.05469H13.2472C13.5385 1.05469 13.7746 0.818578 13.7746 0.527344C13.7746 0.236109 13.5385 0 13.2472 0H10.3276C8.87365 0 7.69085 1.1828 7.69085 2.63672V10.7973C7.69085 12.2512 8.87365 13.434 10.3276 13.434H17.4725L17.4726 16.3961H9.70221C8.24829 16.3961 7.06549 17.5789 7.06549 19.0328V20.8346C3.10845 21.1112 0 24.4178 0 28.4075C0 29.9898 0.481641 31.5058 1.39282 32.7918C2.80617 34.7865 5.17725 36 7.59248 36C11.7338 36 15.1856 32.5761 15.1856 28.4075C15.1856 24.398 12.0618 21.1049 8.12011 20.833V19.0328C8.12011 18.1605 8.82977 17.4508 9.70214 17.4508H26.2977C27.1701 17.4508 27.8797 18.1605 27.8797 19.0328V20.8335C25.4154 21.0075 23.1492 22.3909 21.8762 24.5322C21.7273 24.7826 21.8097 25.1062 22.06 25.255C22.3104 25.4039 22.634 25.3216 22.7827 25.0713C23.9569 23.096 26.1121 21.8691 28.407 21.8691C32.0122 21.8691 34.9452 24.8021 34.9452 28.4072C34.9452 30.306 34.1313 32.018 32.8344 33.2136C32.5195 31.9698 31.6914 30.9087 30.5561 30.3033C30.8918 29.8552 31.0909 29.2991 31.0909 28.6973C31.0909 28.1808 31.0909 26.6231 31.0909 26.0661C31.0909 25.0782 30.2873 24.2745 29.2994 24.2745H27.5148C26.5269 24.2745 25.7233 25.0783 25.7233 26.0661V28.6973C25.7233 29.2996 25.9227 29.8561 26.259 30.3044C25.8827 30.5056 25.533 30.7588 25.2257 31.0569C24.6104 31.6543 24.1846 32.399 23.9798 33.2135C22.6829 32.0179 21.8689 30.3059 21.8689 28.407C21.8689 27.8869 21.9302 27.3692 22.0508 26.8686C22.1191 26.5854 21.945 26.3006 21.6618 26.2323C21.3789 26.1641 21.0938 26.3382 21.0255 26.6214C20.8853 27.2029 20.8143 27.8036 20.8143 28.407C20.8143 32.6123 24.2819 36 28.4072 36C32.5337 36 36 32.6187 36 28.4072C36 24.3977 32.8761 21.1047 28.9345 20.833ZM7.59248 34.9453C6.34275 34.9453 5.13541 34.5852 4.10358 33.9344C4.19435 33.1291 4.55773 32.3846 5.14561 31.8138C5.4836 31.4859 5.88621 31.2284 6.32018 31.0596C6.69916 31.2646 7.13257 31.3812 7.59284 31.3812C8.05317 31.3812 8.48679 31.2645 8.86577 31.0595C10.0801 31.5307 10.9347 32.6416 11.082 33.9339C10.0716 34.5741 8.87463 34.9453 7.59248 34.9453ZM7.4288 27.5735C7.95178 27.4013 8.51379 27.4788 8.97054 27.7862L9.22198 27.9555V28.6973C9.22198 29.5956 8.49115 30.3264 7.59284 30.3264C6.69452 30.3264 5.9637 29.5956 5.9637 28.6973V28.0561L7.4288 27.5735ZM5.96362 26.9458V26.0662C5.96362 25.6598 6.29416 25.3293 6.7005 25.3293H8.4851C8.89144 25.3293 9.22198 25.6598 9.22198 26.0662V26.7171C8.5635 26.3935 7.80877 26.3377 7.09875 26.5718L5.96362 26.9458ZM14.131 28.4075C14.131 30.3062 13.317 32.0183 12.02 33.2137C11.7052 31.9696 10.8771 30.9085 9.74194 30.3031C10.0776 29.855 10.2767 29.299 10.2767 28.6973V26.0661C10.2767 25.0782 9.47299 24.2745 8.4851 24.2745H6.7005C5.71261 24.2745 4.90894 25.0783 4.90894 26.0661V28.6973C4.90894 29.2994 5.10834 29.856 5.44451 30.3042C5.06855 30.5052 4.71881 30.7583 4.41105 31.0569C3.79463 31.6554 3.3686 32.4011 3.1642 33.2161C2.82811 32.9072 2.52218 32.5614 2.2533 32.1819C1.46918 31.0752 1.05469 29.77 1.05469 28.4075C1.05469 27.9585 1.1006 27.5092 1.19109 27.0721C1.81631 24.0573 4.50844 21.8691 7.59248 21.8691C11.1978 21.869 14.131 24.8022 14.131 28.4075ZM26.778 26.0662C26.778 25.6598 27.1086 25.3293 27.5149 25.3293H29.2994C29.7058 25.3293 30.0363 25.6598 30.0363 26.0662V26.7171C29.3778 26.3935 28.6232 26.3378 27.9131 26.5719L26.778 26.9458V26.0662H26.778ZM26.778 28.0562L28.2431 27.5735C28.7662 27.4013 29.328 27.4788 29.7849 27.7862L30.0364 27.9553V28.6973C30.0364 29.5956 29.3055 30.3264 28.4072 30.3264C27.5089 30.3264 26.7781 29.5956 26.7781 28.6973V28.0562H26.778ZM28.4072 34.9453C27.1253 34.9453 25.9286 34.5742 24.9183 33.9343C25.0096 33.1286 25.373 32.384 25.9602 31.8138C26.2974 31.4867 26.7 31.2292 27.1346 31.0597C27.5136 31.2646 27.947 31.3812 28.4072 31.3812C28.8674 31.3812 29.301 31.2646 29.6799 31.0596C30.8945 31.5309 31.7492 32.6417 31.8966 33.9339C30.8862 34.5741 29.6893 34.9453 28.4072 34.9453ZM20.9566 9.25587L21.5184 6.14299L22.4421 9.27373C22.4439 9.27998 22.4459 9.28624 22.4479 9.29236C22.5356 9.5535 22.7789 9.72837 23.0541 9.72837H23.0574C23.3339 9.72696 23.5771 9.54935 23.6625 9.28631C23.6644 9.28027 23.6663 9.27415 23.6681 9.26803L24.5599 6.13955L25.1565 9.26121C25.2112 9.54731 25.4875 9.73512 25.7735 9.6802C26.0596 9.62557 26.2471 9.34931 26.1925 9.06328L25.2663 4.21756C25.2083 3.93321 24.9654 3.72312 24.6757 3.7068C24.3864 3.69098 24.1209 3.8719 24.0313 4.14787C24.0294 4.15392 24.0275 4.15997 24.0258 4.16609L23.0474 7.59832L22.0331 4.1606C22.0313 4.15434 22.0293 4.14809 22.0273 4.1419C21.9349 3.86663 21.6672 3.68754 21.3782 3.70737C21.0885 3.72677 20.8479 3.93947 20.7918 4.23056L19.9186 9.06841C19.8669 9.35501 20.0573 9.6293 20.3439 9.68105C20.6302 9.73266 20.9048 9.54246 20.9566 9.25587Z" fill="#2EBDB1"/>
</svg>
