<svg width="36" height="36" viewBox="0 0 36 36" fill="none" xmlns="http://www.w3.org/2000/svg">
<path d="M33.5537 18.8074C31.8994 17.1605 29.987 18.7019 29.987 18.7019V10.0323C29.987 9.74115 29.751 9.50495 29.4599 9.50495C29.1685 9.50495 28.9326 9.74115 28.9326 10.0323V19.4438C28.9326 19.4438 26.418 21.426 25.3373 21.9105V6.30049C25.3373 5.57484 25.9275 4.98459 26.6532 4.98459H27.6167C28.3423 4.98459 28.9326 5.57484 28.9326 6.30049V7.87347C28.9326 8.16488 29.1685 8.40081 29.4599 8.40081C29.751 8.40081 29.987 8.16488 29.987 7.87347V6.30049C29.987 4.99338 28.9238 3.93018 27.6167 3.93018H26.6532C25.3461 3.93018 24.2826 4.99338 24.2826 6.30049V22.3285C23.9681 22.4167 23.6454 22.4766 23.3174 22.5082V11.3908C23.3174 10.0771 22.2487 9.00836 20.9353 9.00836H19.9951C18.6817 9.00836 17.613 10.0771 17.613 11.3908V16.7637L16.6476 17.2762V15.4881C16.6476 14.3055 15.6854 13.3433 14.503 13.3433H13.088C11.9053 13.3433 10.9434 14.3055 10.9434 15.4881V20.304L9.2216 21.2178L4.38649 22.5996C3.5452 22.84 2.84262 23.3909 2.40866 24.1506C1.97442 24.9106 1.85659 25.7956 2.07687 26.6423L2.61768 28.7232C2.69074 29.005 2.97858 29.1739 3.26065 29.1008C3.54246 29.0275 3.71165 28.7396 3.63831 28.4576L3.09751 26.377C2.78385 25.1702 3.47736 23.9562 4.67653 23.6137L9.09718 22.3502L12.4197 31.2179C12.6422 31.8117 12.6071 33.5058 10.8495 34.1301L7.50882 34.889C6.34453 35.1532 5.19728 34.4553 4.8968 33.2996L4.21867 30.69C4.14533 30.4082 3.85749 30.239 3.57569 30.3121C3.29361 30.3854 3.1247 30.6733 3.19776 30.9553L3.87617 33.5651C4.2574 35.0313 5.55983 36 7.00976 36C8.07517 36 11.0832 35.1584 11.0832 35.1584C11.9987 34.9508 12.7793 34.3575 13.2245 33.5314C13.592 32.8497 13.701 32.0652 13.5434 31.3179L25.1011 28.4883C26.0569 28.2541 26.9643 27.8 27.7246 27.1752L33.3491 22.5538C35.0638 21.033 34.058 19.3092 33.5537 18.8074ZM19.9951 10.0631H20.9353C21.6673 10.0631 22.2627 10.6588 22.2627 11.3908V22.5345L18.9352 22.5332C18.6295 22.5304 18.841 22.3285 18.8578 22.3148L19.816 21.5386C20.7101 20.8143 21.294 19.8074 21.5513 18.5454C21.7148 17.7447 21.4094 16.9433 20.7548 16.4538C20.1434 15.9968 19.3571 15.9089 18.6677 16.211V11.3908C18.6677 10.6588 19.2632 10.0631 19.9951 10.0631ZM11.9981 15.4881C11.9981 14.8872 12.487 14.398 13.088 14.398H14.503C15.104 14.398 15.5932 14.8872 15.5932 15.4881V17.8359L11.9979 19.7443V15.4881H11.9981ZM32.6797 21.7391L27.055 26.3605C26.4161 26.8857 25.6537 27.2672 24.8503 27.4639L13.2075 30.3145L10.0763 21.9586L19.0165 17.213C19.3799 17.0199 19.7938 17.052 20.1231 17.2984C20.4524 17.5448 20.6002 17.9321 20.5181 18.3347C20.3107 19.3507 19.8512 20.153 19.1522 20.719L18.1939 21.4955C17.8011 21.8136 17.6564 22.3269 17.825 22.8034C17.9937 23.2797 18.4293 23.5879 18.9347 23.5879L22.7769 23.5895H22.7796C24.1474 23.5895 25.462 23.1737 26.5809 22.3868L30.875 19.3672C31.4762 18.9442 32.2856 19.0189 32.7992 19.5446C33.095 19.8467 33.674 20.7446 32.6797 21.7391Z" fill="#2EBDB1"/>
<path d="M10.4002 31.5556C10.4002 30.41 9.46825 29.4778 8.32264 29.4778C7.17704 29.4778 6.24512 30.41 6.24512 31.5556C6.24512 32.7009 7.17704 33.6331 8.32264 33.6331C9.46825 33.6331 10.4002 32.7009 10.4002 31.5556ZM7.29981 31.5556C7.29981 30.9914 7.75849 30.5325 8.32264 30.5325C8.88652 30.5325 9.34548 30.9914 9.34548 31.5556C9.34548 32.1195 8.88679 32.5784 8.32264 32.5784C7.75849 32.5784 7.29981 32.1195 7.29981 31.5556Z" fill="#2EBDB1"/>
<path d="M4.53042 16.5573L12.1962 8.83251L13.9205 9.72433C14.5382 10.0438 15.2899 9.93445 15.7909 9.45214L19.9636 5.43552C19.9636 5.43552 19.8487 7.49849 21.586 7.49849C22.4803 7.49849 23.2081 6.77064 23.2081 5.87607V1.62214C23.2081 1.6172 23.2078 1.61198 23.2078 1.60676C23.2021 0.49686 22.3904 0 21.586 0H17.3691C16.4745 0 15.747 0.727849 15.747 1.62214C15.747 3.40523 17.5617 3.24428 17.5617 3.24428L14.3783 6.30839L12.629 5.40366C11.9965 5.07626 11.2343 5.19629 10.7322 5.70166L2.22767 14.2719C1.5976 14.9069 1.60144 15.936 2.23646 16.5661C2.54243 16.8696 3.58723 17.5005 4.53042 16.5573ZM2.97612 15.0148L11.4807 6.44462C11.5905 6.33421 11.7669 6.14084 12.1445 6.34052L14.2295 7.41884C14.4303 7.52266 14.6747 7.48723 14.8376 7.3304L19.2354 3.09706C19.3903 2.94792 19.4392 2.71941 19.3588 2.52C19.2783 2.32033 19.0849 2.18986 18.8696 2.18986H17.3691C17.0563 2.18986 16.8017 1.93525 16.8017 1.62214C16.8017 1.3093 17.0563 1.05469 17.3691 1.05469H21.586C21.7412 1.05469 22.1531 1.05469 22.1531 1.61885C22.1531 1.62351 22.1534 1.62818 22.1534 1.63313V5.87607C22.1534 6.18891 21.8988 6.44352 21.586 6.44352C21.2729 6.44352 21.0182 6.18891 21.0182 5.87607V4.19598C21.0182 3.98449 20.8919 3.79333 20.6974 3.71065C20.503 3.62771 20.2778 3.66946 20.1253 3.81612L15.0595 8.69243C14.8843 8.86108 14.6211 8.89953 14.4053 8.78774L12.3371 7.71794C12.1325 7.6122 11.8828 7.65147 11.7205 7.8149L3.78197 15.8144C3.4359 16.1604 3.08625 15.9237 2.97914 15.8174C2.75721 15.5968 2.75584 15.2368 2.97612 15.0148Z" fill="#2EBDB1"/>
</svg>
