<?xml version="1.0"?>
<svg xmlns="http://www.w3.org/2000/svg" xmlns:xlink="http://www.w3.org/1999/xlink" xmlns:svgjs="http://svgjs.com/svgjs" version="1.1" width="512" height="512" x="0" y="0" viewBox="0 0 24 24" style="enable-background:new 0 0 512 512" xml:space="preserve" class=""><g><g xmlns="http://www.w3.org/2000/svg"><path d="m12 10c-1.379 0-2.5-1.122-2.5-2.5s1.121-2.5 2.5-2.5 2.5 1.122 2.5 2.5-1.121 2.5-2.5 2.5zm0-4c-.827 0-1.5.673-1.5 1.5s.673 1.5 1.5 1.5 1.5-.673 1.5-1.5-.673-1.5-1.5-1.5z" fill="#2ebdb1" data-original="#000000" style="" class=""/></g><g xmlns="http://www.w3.org/2000/svg"><path d="m12.916 15h-1.832c-.554 0-1.014-.42-1.068-.977l-.15-1.532c-.371-.165-.724-.373-1.054-.623l-1.378.632c-.506.234-1.1.04-1.376-.448l-.915-1.611c-.274-.481-.144-1.089.3-1.416l1.223-.893c-.025-.191-.045-.407-.045-.632s.02-.441.045-.633l-1.222-.892c-.445-.327-.575-.935-.301-1.416l.915-1.611c.276-.488.869-.681 1.376-.448l1.378.632c.33-.25.683-.458 1.054-.623l.15-1.532c.054-.557.514-.977 1.068-.977h1.832c.554 0 1.014.42 1.068.977l.15 1.532c.371.165.724.373 1.054.623l1.378-.632c.507-.232 1.101-.04 1.376.448l.915 1.611c.273.481.144 1.09-.301 1.416l-1.223.893c.025.191.045.408.045.633s-.02.441-.045.633l1.222.892c.445.327.575.935.302 1.417l-.915 1.611c-.276.487-.87.681-1.376.448l-1.378-.632c-.33.25-.683.458-1.054.623l-.15 1.532c-.054.555-.514.975-1.068.975zm-4.032-4.214c.116 0 .232.041.324.12.395.336.832.594 1.299.768.18.066.305.229.324.42l.181 1.833c.004.041.035.073.072.073h1.832c.037 0 .068-.032.072-.074l.181-1.833c.02-.19.145-.354.324-.42.467-.174.904-.432 1.299-.768.147-.126.356-.153.532-.074l1.658.76 1.006-1.644c.022-.039.012-.089-.023-.115l-1.466-1.071c-.153-.112-.229-.301-.198-.488.036-.211.078-.491.078-.773s-.042-.562-.078-.773c-.031-.187.045-.376.198-.488l1.467-1.071c.034-.026.044-.076.022-.115l-.915-1.611-1.749.728c-.178.08-.386.051-.532-.074-.395-.337-.832-.596-1.299-.769-.18-.066-.305-.229-.324-.42l-.181-1.833c-.004-.042-.035-.074-.072-.074h-1.832c-.037 0-.068.032-.072.074l-.181 1.833c-.02.19-.145.354-.324.42-.467.173-.904.432-1.299.768-.146.126-.354.155-.532.074l-1.658-.76-1.006 1.644c-.022.039-.012.089.023.115l1.466 1.071c.153.112.229.301.198.488-.036.211-.078.491-.078.773s.042.562.078.773c.031.187-.045.376-.198.488l-1.467 1.072c-.034.025-.044.075-.022.114l.915 1.611 1.749-.728c.066-.029.137-.044.208-.044z" fill="#2ebdb1" data-original="#000000" style="" class=""/></g><g xmlns="http://www.w3.org/2000/svg"><path d="m4.5 19c-1.379 0-2.5-1.122-2.5-2.5s1.121-2.5 2.5-2.5 2.5 1.122 2.5 2.5-1.121 2.5-2.5 2.5zm0-4c-.827 0-1.5.673-1.5 1.5s.673 1.5 1.5 1.5 1.5-.673 1.5-1.5-.673-1.5-1.5-1.5z" fill="#2ebdb1" data-original="#000000" style="" class=""/></g><g xmlns="http://www.w3.org/2000/svg"><path d="m8.5 24c-.276 0-.5-.224-.5-.5v-1c0-.827-.673-1.5-1.5-1.5h-4c-.827 0-1.5.673-1.5 1.5v1c0 .276-.224.5-.5.5s-.5-.224-.5-.5v-1c0-1.378 1.121-2.5 2.5-2.5h4c1.379 0 2.5 1.122 2.5 2.5v1c0 .276-.224.5-.5.5z" fill="#2ebdb1" data-original="#000000" style="" class=""/></g><g xmlns="http://www.w3.org/2000/svg"><path d="m19.5 19c-1.379 0-2.5-1.122-2.5-2.5s1.121-2.5 2.5-2.5 2.5 1.122 2.5 2.5-1.121 2.5-2.5 2.5zm0-4c-.827 0-1.5.673-1.5 1.5s.673 1.5 1.5 1.5 1.5-.673 1.5-1.5-.673-1.5-1.5-1.5z" fill="#2ebdb1" data-original="#000000" style="" class=""/></g><g xmlns="http://www.w3.org/2000/svg"><path d="m23.5 24c-.276 0-.5-.224-.5-.5v-1c0-.827-.673-1.5-1.5-1.5h-4c-.827 0-1.5.673-1.5 1.5v1c0 .276-.224.5-.5.5s-.5-.224-.5-.5v-1c0-1.378 1.121-2.5 2.5-2.5h4c1.379 0 2.5 1.122 2.5 2.5v1c0 .276-.224.5-.5.5z" fill="#2ebdb1" data-original="#000000" style="" class=""/></g></g></svg>
