<svg width="36" height="36" viewBox="0 0 36 36" fill="none" xmlns="http://www.w3.org/2000/svg">
<path d="M35.2969 30.6562H34.4529V13.6061C34.4529 11.8475 33.0862 10.4031 31.3594 10.2766V2.95312C31.3594 1.32476 30.0346 0 28.4062 0H7.58791C5.95955 0 4.63479 1.32476 4.63479 2.95312V10.277C2.91052 10.406 1.54666 11.8493 1.54666 13.6061V30.6562H0.703125C0.314859 30.6562 0 30.9711 0 31.3594C0 33.9183 2.08174 36 4.64062 36H31.3594C33.9183 36 36 33.9183 36 31.3594C36 30.9711 35.6851 30.6562 35.2969 30.6562ZM33.0467 13.6061V30.6562H31.3594V11.689C32.3096 11.8103 33.0467 12.6234 33.0467 13.6061ZM7.58791 1.40625H28.4062C29.2592 1.40625 29.9531 2.10016 29.9531 2.95312V6.1875H21.1875C20.7992 6.1875 20.4844 6.50236 20.4844 6.89062C20.4844 7.27889 20.7992 7.59375 21.1875 7.59375H29.9531V30.6562H27.751C28.1256 29.5796 28.3154 28.4527 28.3154 27.2929C28.3154 21.6324 23.7103 17.0273 18.0498 17.0273C12.3893 17.0273 7.78416 21.6324 7.78416 27.2929C7.78416 28.4526 7.974 29.5796 8.34855 30.6562H6.04104V7.59375H14.8594C15.2476 7.59375 15.5625 7.27889 15.5625 6.89062C15.5625 6.50236 15.2476 6.1875 14.8594 6.1875H6.04104V2.95312C6.04104 2.10016 6.73495 1.40625 7.58791 1.40625ZM17.1943 29.8008C17.1943 29.3291 17.5781 28.9453 18.0498 28.9453C18.5215 28.9453 18.9053 29.3291 18.9053 29.8008C18.9053 30.2725 18.5215 30.6562 18.0498 30.6562C17.5781 30.6562 17.1943 30.2725 17.1943 29.8008ZM19.7329 28.2919L20.85 26.357C20.9486 26.6513 21.0029 26.9658 21.0029 27.293C21.0029 27.6813 21.3178 27.9961 21.706 27.9961C22.0943 27.9961 22.4092 27.6813 22.4092 27.293C22.4092 24.8892 20.4536 22.9336 18.0498 22.9336C15.646 22.9336 13.6904 24.8892 13.6904 27.293C13.6904 27.6813 14.0053 27.9961 14.3935 27.9961C14.7818 27.9961 15.0967 27.6813 15.0967 27.293C15.0967 25.6646 16.4214 24.3399 18.0498 24.3399C18.7855 24.3399 19.4588 24.6109 19.9763 25.0577L18.5157 27.5877C18.3653 27.556 18.2095 27.5392 18.0498 27.5392C16.8026 27.5392 15.788 28.5538 15.788 29.8008C15.788 30.1035 15.8482 30.3922 15.9566 30.6563H13.0244C12.355 29.6606 12.003 28.5048 12.003 27.293C12.003 23.9587 14.7156 21.2461 18.0499 21.2461C21.3841 21.2461 24.0967 23.9587 24.0967 27.293C24.0967 28.5048 23.7447 29.6606 23.0753 30.6563H20.1431C20.2515 30.3922 20.3117 30.1035 20.3117 29.8008C20.3115 29.2215 20.0924 28.6925 19.7329 28.2919ZM18.0498 19.8398C13.9402 19.8398 10.5967 23.1833 10.5967 27.2929C10.5967 28.4791 10.8717 29.6212 11.3978 30.6562H9.85177C9.41273 29.5902 9.19048 28.4609 9.19048 27.2929C9.19048 22.4078 13.1648 18.4335 18.0499 18.4335C22.935 18.4335 26.9092 22.4078 26.9092 27.2929C26.9092 28.461 26.687 29.5903 26.248 30.6562H24.7019C25.2279 29.6212 25.503 28.4791 25.503 27.2929C25.5029 23.1833 22.1594 19.8398 18.0498 19.8398ZM2.95291 13.6061C2.95291 12.6253 3.68719 11.8133 4.63479 11.6897V30.6562H2.95291V13.6061ZM31.3594 34.5938H4.64062C3.0986 34.5938 1.8052 33.5089 1.48324 32.0625H34.5168C34.1948 33.5089 32.9014 34.5938 31.3594 34.5938Z" fill="#2EBDB1"/>
<path d="M12.51 4.5C12.6949 4.5 12.8756 4.42477 13.0071 4.29391C13.1378 4.1632 13.2131 3.9818 13.2131 3.79688C13.2131 3.61195 13.1379 3.43055 13.0071 3.29977C12.8763 3.16898 12.6949 3.09375 12.51 3.09375C12.3244 3.09375 12.1437 3.16891 12.0122 3.29977C11.8814 3.43055 11.8069 3.61195 11.8069 3.79688C11.8069 3.9818 11.8814 4.1632 12.0122 4.29391C12.1437 4.42477 12.3251 4.5 12.51 4.5Z" fill="#2EBDB1"/>
<path d="M9.13499 4.5C9.31992 4.5 9.50062 4.42477 9.6321 4.29391C9.76282 4.1632 9.83812 3.9818 9.83812 3.79688C9.83812 3.61195 9.76289 3.43055 9.6321 3.29977C9.50132 3.16898 9.31992 3.09375 9.13499 3.09375C8.94937 3.09375 8.76867 3.16891 8.63789 3.29977C8.5064 3.43055 8.43187 3.61195 8.43187 3.79688C8.43187 3.9818 8.5064 4.1632 8.63789 4.29391C8.76867 4.42477 8.95007 4.5 9.13499 4.5Z" fill="#2EBDB1"/>
<path d="M15.885 4.5C16.0699 4.5 16.2506 4.42477 16.3821 4.29391C16.5128 4.1632 16.5881 3.9818 16.5881 3.79688C16.5881 3.61195 16.5129 3.43055 16.3821 3.29977C16.2513 3.16898 16.0699 3.09375 15.885 3.09375C15.6994 3.09375 15.5187 3.16891 15.3879 3.29977C15.2564 3.43055 15.1819 3.61195 15.1819 3.79688C15.1819 3.9818 15.2564 4.1632 15.3879 4.29391C15.5187 4.42477 15.6994 4.5 15.885 4.5Z" fill="#2EBDB1"/>
<path d="M16.2143 9.74136C15.193 9.03043 13.8132 9.15312 12.9333 10.0329C11.9327 11.0335 11.9327 12.6617 12.9333 13.6623C13.4303 14.1593 14.0868 14.4147 14.7483 14.4147C15.2577 14.4147 15.77 14.2631 16.2144 13.9538L18.009 12.7043L19.8036 13.9538C20.248 14.2631 20.7602 14.4147 21.2697 14.4147C21.931 14.4147 22.5877 14.1592 23.0847 13.6623C24.0853 12.6617 24.0853 11.0335 23.0847 10.0329C22.2048 9.15305 20.825 9.0305 19.8037 9.74136L18.0091 10.9908L16.2143 9.74136ZM15.4108 12.7997C14.9491 13.1211 14.3253 13.0656 13.9276 12.6679C13.4752 12.2156 13.4752 11.4795 13.9276 11.0272C14.1523 10.8026 14.4491 10.6871 14.748 10.6871C14.9783 10.6871 15.2099 10.7556 15.4108 10.8955L16.7783 11.8476L15.4108 12.7997ZM20.607 10.8955C21.0688 10.5741 21.6925 10.6295 22.0902 11.0272C22.5426 11.4795 22.5426 12.2156 22.0902 12.6679C21.6925 13.0656 21.0686 13.1211 20.607 12.7997L19.2395 11.8476L20.607 10.8955Z" fill="#2EBDB1"/>
<path d="M18.0232 7.62033C18.2081 7.62033 18.3895 7.5451 18.5202 7.41361C18.6517 7.2829 18.7263 7.1015 18.7263 6.91721C18.7263 6.73158 18.6517 6.55088 18.5202 6.41939C18.3895 6.28861 18.2081 6.21338 18.0232 6.21338C17.8383 6.21338 17.6569 6.28854 17.5261 6.41939C17.3953 6.55025 17.3201 6.73158 17.3201 6.91721C17.3201 7.10213 17.3952 7.28283 17.5261 7.41361C17.6569 7.5451 17.8383 7.62033 18.0232 7.62033Z" fill="#2EBDB1"/>
</svg>
