<svg width="36" height="36" viewBox="0 0 36 36" fill="none" xmlns="http://www.w3.org/2000/svg">
<path d="M35.9367 20.8834L29.7519 5.95193C29.6679 5.74909 29.5068 5.58797 29.304 5.50399C29.1011 5.41989 28.8734 5.41989 28.6705 5.50399L8.07555 14.0349C7.87272 14.1189 7.71159 14.28 7.62761 14.4829C7.54363 14.6857 7.54363 14.9136 7.62772 15.1163L13.8134 30.0478C13.9454 30.3666 14.2536 30.559 14.5784 30.559C14.684 30.559 14.7913 30.5386 14.8948 30.4957L35.4889 21.9648C35.9111 21.7899 36.1117 21.3058 35.9367 20.8834ZM23.0289 21.0079L10.4394 14.8475L27.5737 7.75011L23.0289 21.0079ZM23.1439 22.9071C23.2584 22.9632 23.3829 22.9914 23.5076 22.9914C23.6151 22.9914 23.7228 22.9705 23.8245 22.9284C24.0439 22.8375 24.2136 22.6568 24.2906 22.4321L26.0641 17.2584L33.1931 21.124L15.9234 28.2779L18.2311 20.5031L23.1439 22.9071ZM33.5433 19.4308L26.6086 15.6705L29.0435 8.56732L33.5433 19.4308ZM9.97791 16.4645L16.7235 19.7653L14.4785 27.3285L9.97791 16.4645Z" fill="#2EBDB1"/>
<path d="M0.827688 18.3873H5.63225C6.08935 18.3873 6.45994 18.0168 6.45994 17.5596C6.45994 17.1024 6.08935 16.7319 5.63225 16.7319H0.827688C0.370583 16.7319 0 17.1024 0 17.5596C0 18.0167 0.370583 18.3873 0.827688 18.3873Z" fill="#2EBDB1"/>
<path d="M9.05744 26.1431H0.827688C0.370583 26.1431 0 26.5135 0 26.9708C0 27.428 0.370583 27.7984 0.827688 27.7984H9.05744C9.51455 27.7984 9.88513 27.428 9.88513 26.9708C9.88513 26.5135 9.51455 26.1431 9.05744 26.1431Z" fill="#2EBDB1"/>
<path d="M0.827688 23.0929H7.34534C7.80245 23.0929 8.17303 22.7224 8.17303 22.2652C8.17303 21.808 7.80245 21.4375 7.34534 21.4375H0.827688C0.370583 21.4375 0 21.808 0 22.2652C0 22.7224 0.370583 23.0929 0.827688 23.0929Z" fill="#2EBDB1"/>
</svg>
