<svg width="36" height="36" viewBox="0 0 36 36" fill="none" xmlns="http://www.w3.org/2000/svg">
<g clip-path="url(#clip0)">
<path d="M34.6351 12.8448L30.4832 12.2328C30.1263 11.4198 29.6733 10.6219 29.1108 9.81193L30.6902 5.76807C30.9827 5.0031 30.6812 4.16016 29.9927 3.77465L24.0305 0.231823C23.339 -0.188136 22.4406 -0.0186898 21.9396 0.630831L19.3522 4.03121C18.3502 3.92624 17.6482 3.92624 16.6463 4.03121L14.0574 0.626331C13.5684 -0.00814337 12.7 -0.180613 11.9755 0.227324L6.02378 3.76418C5.34578 4.14364 5.03684 4.99713 5.31133 5.77257L6.88774 9.80588C6.34326 10.5784 5.88428 11.3913 5.51677 12.2313L1.37842 12.8418C0.592499 12.9438 0 13.6383 0 14.4557V21.5489C0 22.3679 0.592499 23.0623 1.36492 23.1599L5.51677 23.7718C5.87374 24.5848 6.32674 25.3828 6.88922 26.1927L5.30978 30.2366C5.01729 31.003 5.31878 31.8461 6.00725 32.23L11.992 35.7879C12.247 35.9304 12.523 35.9994 12.7945 35.9994C13.2774 35.9994 13.7469 35.7819 14.0619 35.3724L16.6478 31.972C17.4458 32.059 18.5588 32.059 19.3553 31.972L21.9441 35.3769C22.4316 36.0099 23.3 36.1839 24.0261 35.7774L25.751 34.7515C26.1065 34.54 26.2234 34.0795 26.012 33.724C25.8005 33.3685 25.34 33.2501 24.9845 33.463L23.1351 34.4665L20.2897 30.7241C20.1277 30.5112 19.8668 30.4032 19.5968 30.4347C18.6878 30.5517 17.3168 30.5517 16.4079 30.4347C16.1394 30.4046 15.8769 30.5112 15.7149 30.7241L12.745 34.489L6.76027 30.9311C6.70325 30.8981 6.69425 30.8261 6.71379 30.7766L8.4387 26.3608C8.53172 26.1209 8.4972 25.8524 8.34568 25.6454C7.64821 24.6869 7.12475 23.76 6.74677 22.812C6.64777 22.563 6.42278 22.386 6.15877 22.347L1.58843 21.6735C1.58394 21.6735 1.50891 21.5475 1.50441 21.5475V14.4543L1.58843 14.3268L6.15877 13.6533C6.42426 13.6143 6.64777 13.4373 6.74677 13.1883C7.13973 12.2014 7.67521 11.2504 8.34118 10.3625C8.49565 10.1555 8.5332 9.88245 8.4387 9.64101L6.72125 5.24912C6.70023 5.18612 6.71977 5.09465 6.77827 5.0616L12.871 1.53677L15.7164 5.27914C15.8784 5.49063 16.1394 5.59863 16.4093 5.56861C17.6573 5.40809 18.3502 5.40809 19.5982 5.56861C19.8697 5.6001 20.1292 5.49211 20.2912 5.27914L23.2611 1.51582L29.2444 5.07215C29.3014 5.10512 29.3119 5.17712 29.2924 5.22662L27.5675 9.64241C27.4745 9.88238 27.509 10.1509 27.6605 10.3579C28.358 11.3163 28.8814 12.2433 29.2594 13.1913C29.3584 13.4403 29.5834 13.6173 29.8474 13.6562L34.4178 14.3297C34.4223 14.3312 34.4973 14.4572 34.5018 14.4572V21.5504L34.4178 21.6764L31.4869 22.1084C31.0759 22.1684 30.7924 22.5494 30.8539 22.9588C30.9139 23.3683 31.2919 23.6563 31.7044 23.5918L34.6202 23.1613C35.4062 23.0609 36.0002 22.3679 36.0002 21.5489V14.4557C35.9985 13.6383 35.4076 12.9438 34.6351 12.8448Z" fill="#2EBDB1"/>
<path d="M26.7409 21.1793C25.904 20.3423 25.448 19.2804 25.493 18.2649C25.5725 16.414 24.7985 14.647 23.1261 12.8636C21.6952 11.3382 19.7737 10.4728 17.9048 10.4998C16.2384 10.5208 14.65 11.1027 13.3105 12.1842C13.12 12.3386 13.0166 12.5757 13.033 12.8201C13.051 13.0646 13.186 13.2851 13.396 13.4096L17.9799 16.159C17.8434 17.5374 17.0289 18.7464 15.7825 19.3913L11.6786 16.9284C11.4522 16.792 11.1372 16.8025 10.9032 16.9299C10.6752 17.0544 10.5282 17.2869 10.5132 17.5449C10.3902 19.6359 11.1117 21.6232 12.5426 23.1412C13.9555 24.6382 15.9445 25.4961 18.0009 25.4961C18.5529 25.4961 19.1064 25.4241 19.7138 25.2696L29.288 34.8438C30.0304 35.5877 31.0174 35.9957 32.0688 35.9957C34.2363 35.9957 35.9987 34.2318 35.9987 32.0644C35.9987 31.0144 35.5892 30.0274 34.8467 29.2849L26.7409 21.1793ZM32.0687 34.4972H32.0657C31.4162 34.4972 30.8057 34.2437 30.3468 33.7848L20.4637 23.9017C20.3197 23.7592 20.1292 23.6827 19.9327 23.6827C19.8592 23.6827 19.7872 23.6917 19.7197 23.7127C19.0777 23.9062 18.5333 23.9962 18.0023 23.9962C16.3314 23.9962 14.7819 23.3272 13.636 22.1122C12.787 21.2123 12.2515 20.1053 12.07 18.9129L15.3654 20.8898C15.5859 21.0217 15.8559 21.0307 16.0868 20.9182L16.4033 20.7607C18.3127 19.8053 19.5006 17.8839 19.5006 15.748C19.5006 15.4839 19.3612 15.2395 19.1362 15.1045L15.1763 12.7286C16.0268 12.2606 16.9597 12.0101 17.9242 11.9981C19.3717 11.9771 20.8896 12.6686 22.0326 13.888C23.4335 15.3835 24.0575 16.753 23.9945 18.1989C23.9315 19.6328 24.5465 21.1058 25.6804 22.2397L33.7861 30.3469C34.2465 30.8059 34.4985 31.4164 34.4985 32.0673C34.5001 33.4068 33.4111 34.4972 32.0687 34.4972Z" fill="#2EBDB1"/>
</g>
<defs>
<clipPath id="clip0">
<rect width="36" height="36" fill="white"/>
</clipPath>
</defs>
</svg>
