<svg width="36" height="36" viewBox="0 0 36 36" fill="none" xmlns="http://www.w3.org/2000/svg">
<path d="M35.4 31.1999H34.2V11.9999C34.198 10.0124 32.5875 8.40195 30.6 8.3999H27V9.5999H30.6C31.9254 9.5999 33 10.6745 33 11.9999V31.1999H23.4C23.2409 31.1999 23.0883 31.2632 22.9758 31.3757L21.9516 32.3999H14.0484L13.0242 31.3757C12.9117 31.2632 12.7591 31.1999 12.6 31.1999H3V11.9999C3 10.6745 4.07461 9.5999 5.4 9.5999H9V8.3999H5.4C3.4125 8.40195 1.80205 10.0124 1.8 11.9999V31.1999H0.6C0.268652 31.1999 0 31.4686 0 31.7999V33.5999C0 34.9253 1.07461 35.9999 2.4 35.9999H33.6C34.9254 35.9999 36 34.9253 36 33.5999V31.7999C36 31.4686 35.7313 31.1999 35.4 31.1999ZM34.8 33.5999C34.8 34.2626 34.2627 34.7999 33.6 34.7999H2.4C1.7373 34.7999 1.2 34.2626 1.2 33.5999V32.3999H12.3516L13.3758 33.4241C13.4883 33.5366 13.6409 33.5999 13.8 33.5999H22.2C22.3591 33.5999 22.5117 33.5366 22.6242 33.4241L23.6484 32.3999H34.8V33.5999Z" fill="#2EBDB1"/>
<path d="M4.2 12.6V29.4C4.2 29.7314 4.46865 30 4.8 30H31.2C31.5313 30 31.8 29.7314 31.8 29.4V12.6C31.8 11.606 30.994 10.8 30 10.8H27V12H30C30.3313 12 30.6 12.2687 30.6 12.6V28.8H5.4V12.6C5.4 12.2687 5.66865 12 6 12H9V10.8H6C5.00595 10.8 4.2 11.606 4.2 12.6Z" fill="#2EBDB1"/>
<path d="M18 3.6C18.994 3.6 19.8 4.40596 19.8 5.4C19.8 5.73135 20.0686 6 20.4 6H22.8C23.1313 6 23.4 5.73135 23.4 5.4C23.4 2.41758 20.9824 0 18 0C15.0176 0 12.6 2.41758 12.6 5.4V7.2H12C11.006 7.2 10.2 8.00596 10.2 9V17.4C10.2 18.394 11.006 19.2 12 19.2H18V18H12C11.6686 18 11.4 17.7313 11.4 17.4V9C11.4 8.66865 11.6686 8.4 12 8.4H24C24.3313 8.4 24.6 8.66865 24.6 9V13.2H25.8V9C25.8 8.00596 24.994 7.2 24 7.2H16.2V5.4C16.2 4.40596 17.006 3.6 18 3.6ZM13.8 7.2V5.4C13.7982 3.1957 15.5007 1.36523 17.6991 1.20732C19.8978 1.04971 21.8443 2.61826 22.1575 4.8H20.9399C20.6332 3.28945 19.2319 2.25732 17.6985 2.4123C16.1651 2.56699 14.9985 3.85869 15 5.4V7.2H13.8Z" fill="#2EBDB1"/>
<path d="M18.6 16.2V14.9147C19.7701 14.6127 20.5333 13.4874 20.381 12.2886C20.2286 11.0897 19.2085 10.1909 18 10.1909C16.7915 10.1909 15.7714 11.0897 15.619 12.2886C15.4667 13.4874 16.2299 14.6127 17.4 14.9147V16.2H18.6ZM16.8 12.6C16.8 11.9373 17.3373 11.4 18 11.4C18.6627 11.4 19.2 11.9373 19.2 12.6C19.2 13.2627 18.6627 13.8 18 13.8C17.3373 13.8 16.8 13.2627 16.8 12.6Z" fill="#2EBDB1"/>
<path d="M8.40001 24C8.40206 25.6562 9.74386 26.9979 11.4 27H24.6C25.9685 27 27.1635 26.0742 27.5051 24.7494L26.3435 24.4494C26.1387 25.2445 25.4212 25.8003 24.6 25.8H11.4C10.406 25.8 9.60001 24.994 9.60001 24C9.60001 23.006 10.406 22.2 11.4 22.2H18.6V21H11.4C9.74386 21.0021 8.40206 22.3438 8.40001 24Z" fill="#2EBDB1"/>
<path d="M11.4 23.3999H12.6V24.5999H11.4V23.3999Z" fill="#2EBDB1"/>
<path d="M13.8 23.3999H15V24.5999H13.8V23.3999Z" fill="#2EBDB1"/>
<path d="M16.2 23.3999H17.4V24.5999H16.2V23.3999Z" fill="#2EBDB1"/>
<path d="M18.6 23.3999H19.8V24.5999H18.6V23.3999Z" fill="#2EBDB1"/>
<path d="M22.6242 18.1756L21.7758 19.0241L23.5758 20.8241C23.8101 21.0582 24.1898 21.0582 24.4242 20.8241L28.6242 16.6241L27.7758 15.7756L24 19.5514L22.6242 18.1756Z" fill="#2EBDB1"/>
<path d="M19.2 19.2C19.2012 20.9962 20.2052 22.6412 21.8019 23.4639C23.3985 24.2863 25.321 24.1486 26.7841 23.1068C28.2472 22.065 29.0063 20.2934 28.7514 18.5154L27.5634 18.6847C27.5877 18.8555 27.5997 19.0275 27.6 19.2C27.5997 20.8576 26.4677 22.3011 24.8578 22.696C23.248 23.0909 21.5763 22.3354 20.809 20.8661C20.0417 19.3966 20.3769 17.5934 21.6208 16.4977C22.865 15.4023 24.6964 15.298 26.0569 16.2451L26.7431 15.2611C25.2762 14.2392 23.3628 14.1176 21.7781 14.9452C20.1935 15.7726 19.2 17.4123 19.2 19.2Z" fill="#2EBDB1"/>
</svg>
