<svg width="36" height="36" viewBox="0 0 36 36" fill="none" xmlns="http://www.w3.org/2000/svg">
<path d="M31.7333 29.7964C31.6533 24.9039 26.651 23.4584 22.9984 22.4029C22.5722 22.2798 22.1624 22.1613 21.7783 22.0431V20.0247C22.525 19.5567 23.1794 18.9543 23.7072 18.2516H25.9322C27.021 18.2516 27.9069 17.3658 27.9069 16.277V13.8866C28.0388 13.5789 28.1122 13.2403 28.1122 12.8847V12.1413C28.1122 11.7861 28.0388 11.4477 27.9069 11.1402V9.90707C27.9069 4.44433 23.4627 0 18 0C12.5384 0 8.0951 4.44433 8.0951 9.90714V11.105C8.0951 11.1144 8.09616 11.1235 8.09651 11.1328C7.96249 11.4423 7.88782 11.7832 7.88782 12.1414V12.8848C7.88782 14.2902 9.03026 15.4335 10.4345 15.4335H11.0155C11.418 17.3635 12.6029 19.0095 14.2217 20.0244V22.0431C13.8375 22.1613 13.4278 22.2797 13.0016 22.4029C9.34899 23.4584 4.34666 24.9039 4.26664 29.7964C4.26657 29.8003 4.26657 29.8041 4.26657 29.808V35.2969C4.26657 35.6852 4.58143 36 4.9697 36H7.05433C7.4426 36 7.75746 35.6852 7.75746 35.2969C7.75746 34.9085 7.4426 34.5937 7.05433 34.5937H5.67276V29.8138C5.70236 28.1068 6.48649 26.8272 8.14031 25.7869C9.23164 25.1005 10.5658 24.6114 11.881 24.2022L13.5798 27.5121C13.7691 27.8811 14.2539 28.0064 14.5985 27.774L15.356 27.263L16.0063 29.7073L14.892 34.5937H13.3682C12.9799 34.5937 12.6651 34.9085 12.6651 35.2968C12.6651 35.6851 12.9799 35.9999 13.3682 35.9999H31.0303C31.4186 35.9999 31.7334 35.6851 31.7334 35.2968V29.8079C31.7334 29.8041 31.7334 29.8003 31.7333 29.7964ZM22.608 23.7538C22.6543 23.7672 22.7015 23.7809 22.7481 23.7944L21.5326 26.1649L19.258 24.6311L21.1853 23.331C21.6331 23.472 22.1092 23.6097 22.608 23.7538ZM18.0005 25.4792L19.4104 26.43L18.729 28.9912H17.271L16.5898 26.4308L18.0005 25.4792ZM18.0003 23.7831L15.6278 22.1833V20.703C16.3704 20.9657 17.1685 21.1097 17.9999 21.1097C18.8312 21.1097 19.6295 20.9661 20.372 20.7035V22.1833L18.0003 23.7831ZM23.7283 10.0357C23.7187 10.0296 23.7091 10.0235 23.6995 10.0174C22.2567 9.09896 21.0106 8.30577 19.0582 8.8644C19.0401 8.86961 19.0221 8.87551 19.0044 8.88212C18.5905 9.03758 18.2141 9.1825 17.85 9.32263C15.6265 10.1785 14.4125 10.646 12.2716 10.5858V10.0227C12.2716 6.864 14.8413 4.29421 17.9999 4.29421C21.1585 4.29421 23.7282 6.864 23.7282 10.0227V10.0357H23.7283ZM26.5006 16.277C26.5006 16.5904 26.2456 16.8454 25.9322 16.8454H24.531C24.7289 16.3969 24.8821 15.9244 24.9845 15.4334H25.5656C25.8957 15.4334 26.2109 15.3696 26.5007 15.2546V16.277H26.5006ZM26.7059 12.8847C26.7059 13.5147 26.1944 14.0272 25.5655 14.0272H25.1339C25.1341 14.0097 25.1346 11.0009 25.1346 11.0009H25.5656C26.1944 11.0009 26.706 11.5125 26.706 12.1413V12.8847H26.7059ZM10.4345 14.0273C9.80567 14.0273 9.29408 13.5147 9.29408 12.8848V12.1414C9.29408 11.5125 9.8056 11.0009 10.4345 11.0009H10.8654C10.8654 11.0009 10.866 14.0098 10.8661 14.0273H10.4345ZM10.8786 9.5946H10.4344C10.1057 9.5946 9.79175 9.65788 9.50305 9.77179C9.57568 5.14661 13.3591 1.40626 18 1.40626C22.6423 1.40626 26.4267 5.14704 26.4988 9.77256C26.2096 9.65816 25.8949 9.5946 25.5655 9.5946H25.1213C24.8992 5.85902 21.7902 2.88796 18 2.88796C14.2097 2.88796 11.1008 5.85909 10.8786 9.5946ZM12.3139 14.659C12.3139 14.6583 12.3137 14.6576 12.3137 14.6569C12.287 14.4331 12.2717 14.2059 12.2717 13.975V11.992C14.6773 12.0506 16.1123 11.4985 18.3552 10.6351C18.7085 10.4991 19.0736 10.3585 19.4714 10.209C20.7996 9.83823 21.5638 10.3249 22.9443 11.2037C23.1839 11.3562 23.4466 11.5233 23.7283 11.695V13.975C23.7283 15.0206 23.4454 16.0008 22.9541 16.8455H18C17.6117 16.8455 17.2969 17.1603 17.2969 17.5486C17.2969 17.9369 17.6117 18.2517 18 18.2517H21.8056C20.793 19.1539 19.4597 19.7035 18 19.7035C15.0729 19.7035 12.6532 17.4962 12.3139 14.659ZM14.469 26.165L13.2522 23.7943C13.2987 23.7808 13.3457 23.7672 13.392 23.7538C13.8908 23.6097 14.3669 23.4719 14.8148 23.331L16.7429 24.6312L14.469 26.165ZM16.3344 34.5937L17.2913 30.3975H18.7089L19.6672 34.5937H16.3344ZM30.3272 34.5937H21.1097L19.9937 29.7072L20.6443 27.262L21.4036 27.774C21.7483 28.0064 22.2331 27.8811 22.4224 27.5119L24.1193 24.2024C25.4344 24.6115 26.7685 25.1005 27.8597 25.7869C29.5135 26.8271 30.2977 28.1068 30.3273 29.8138V34.5937H30.3272Z" fill="#2EBDB1"/>
<path d="M27.5505 31.0779H24.007C23.6187 31.0779 23.3038 31.3927 23.3038 31.781C23.3038 32.1693 23.6187 32.4841 24.007 32.4841H27.5505C27.9388 32.4841 28.2536 32.1693 28.2536 31.781C28.2536 31.3927 27.9388 31.0779 27.5505 31.0779Z" fill="#2EBDB1"/>
<path d="M10.2113 34.5936C9.82304 34.5936 9.50818 34.9084 9.50818 35.2968C9.50818 35.6851 9.82304 35.9999 10.2113 35.9999H10.2133C10.6015 35.9999 10.9153 35.6851 10.9153 35.2968C10.9153 34.9084 10.5996 34.5936 10.2113 34.5936Z" fill="#2EBDB1"/>
</svg>
