<svg width="36" height="36" viewBox="0 0 36 36" fill="none" xmlns="http://www.w3.org/2000/svg">
<path d="M32.0625 19.4231V8.3925C33.9677 8.118 35.4375 6.47944 35.4375 4.5C35.4375 2.32931 33.6712 0.5625 31.5 0.5625C29.3288 0.5625 27.5625 2.32931 27.5625 4.5H0.5625V27H17.4662C17.7587 31.7003 21.6653 35.4375 26.4375 35.4375C31.3999 35.4375 35.4375 31.3999 35.4375 26.4375C35.4375 23.6031 34.1173 21.0741 32.0625 19.4231ZM31.5 1.6875C33.0508 1.6875 34.3125 2.94919 34.3125 4.5C34.3125 6.05081 33.0508 7.3125 31.5 7.3125C29.9492 7.3125 28.6875 6.05081 28.6875 4.5C28.6875 2.94919 29.9492 1.6875 31.5 1.6875ZM1.6875 5.625H27.7284C27.8629 6.07387 28.0766 6.48731 28.3511 6.85406L24.9109 10.2943C24.6904 10.1886 24.4474 10.125 24.1875 10.125C23.9276 10.125 23.6846 10.1886 23.4647 10.2943L22.3313 9.16087C22.4364 8.94037 22.5 8.69738 22.5 8.4375C22.5 7.50712 21.7429 6.75 20.8125 6.75C19.8821 6.75 19.125 7.50712 19.125 8.4375C19.125 8.69738 19.1886 8.94038 19.2943 9.16031L16.4734 11.9812C16.2529 11.8761 16.0099 11.8125 15.75 11.8125C14.8196 11.8125 14.0625 12.5696 14.0625 13.5C14.0625 14.4304 14.8196 15.1875 15.75 15.1875C16.6804 15.1875 17.4375 14.4304 17.4375 13.5C17.4375 13.2401 17.3739 12.9971 17.2682 12.7772L20.0891 9.95625C20.3096 10.0614 20.5526 10.125 20.8125 10.125C21.0724 10.125 21.3154 10.0614 21.5353 9.95569L22.6687 11.0891C22.5636 11.3096 22.5 11.5526 22.5 11.8125C22.5 12.7429 23.2571 13.5 24.1875 13.5C25.1179 13.5 25.875 12.7429 25.875 11.8125C25.875 11.5526 25.8114 11.3096 25.7057 11.0897L29.1465 7.64944C29.6612 8.03531 30.2721 8.29687 30.9375 8.39306V18.6559C29.6117 17.8858 28.0777 17.4375 26.4375 17.4375C23.7488 17.4375 21.3379 18.6289 19.6875 20.5048V18H16.3125V24.75H17.6017C17.532 25.1173 17.4898 25.4936 17.4662 25.875H1.6875V5.625ZM24.1875 11.25C24.4974 11.25 24.75 11.502 24.75 11.8125C24.75 12.123 24.4974 12.375 24.1875 12.375C23.8776 12.375 23.625 12.123 23.625 11.8125C23.625 11.502 23.8776 11.25 24.1875 11.25ZM20.25 8.4375C20.25 8.127 20.5026 7.875 20.8125 7.875C21.1224 7.875 21.375 8.127 21.375 8.4375C21.375 8.748 21.1224 9 20.8125 9C20.5026 9 20.25 8.748 20.25 8.4375ZM16.3125 13.5C16.3125 13.8105 16.0599 14.0625 15.75 14.0625C15.4401 14.0625 15.1875 13.8105 15.1875 13.5C15.1875 13.1895 15.4401 12.9375 15.75 12.9375C16.0599 12.9375 16.3125 13.1895 16.3125 13.5ZM26.4375 30.9375C23.9563 30.9375 21.9375 28.9187 21.9375 26.4375C21.9375 23.9563 23.9563 21.9375 26.4375 21.9375C28.9187 21.9375 30.9375 23.9563 30.9375 26.4375C30.9375 28.9187 28.9187 30.9375 26.4375 30.9375ZM18.5625 22.0899C18.2931 22.5759 18.0703 23.0895 17.8937 23.625H17.4375V19.125H18.5625V22.0899ZM25.875 18.5912V20.8412C23.0366 21.1247 20.8125 23.526 20.8125 26.4375C20.8125 27.2604 20.9947 28.0406 21.3137 28.746L19.3624 29.8727C18.855 28.8332 18.5625 27.6699 18.5625 26.4375C18.5625 22.2851 21.7952 18.8814 25.875 18.5912ZM26.4375 34.3125C23.7296 34.3125 21.3368 32.9383 19.9192 30.8503L21.8784 29.7191C22.9011 31.1355 24.561 32.0625 26.4375 32.0625C28.314 32.0625 29.9739 31.1355 30.9966 29.7191L32.9557 30.8503C31.5382 32.9383 29.1454 34.3125 26.4375 34.3125ZM33.5126 29.8727L31.5613 28.746C31.8803 28.0406 32.0625 27.2604 32.0625 26.4375C32.0625 23.526 29.8384 21.1241 27 20.8412V18.5912C31.0798 18.8814 34.3125 22.2851 34.3125 26.4375C34.3125 27.6699 34.02 28.8332 33.5126 29.8727Z" fill="#2EBDB1"/>
<path d="M26.4375 23.0625C24.5762 23.0625 23.0625 24.5762 23.0625 26.4375C23.0625 28.2988 24.5762 29.8125 26.4375 29.8125C28.2988 29.8125 29.8125 28.2988 29.8125 26.4375C29.8125 24.5762 28.2988 23.0625 26.4375 23.0625ZM26.4375 28.6875C25.1966 28.6875 24.1875 27.6784 24.1875 26.4375C24.1875 25.1966 25.1966 24.1875 26.4375 24.1875C27.6784 24.1875 28.6875 25.1966 28.6875 26.4375C28.6875 27.6784 27.6784 28.6875 26.4375 28.6875Z" fill="#2EBDB1"/>
<path d="M2.8125 6.75H3.9375V7.875H2.8125V6.75Z" fill="#2EBDB1"/>
<path d="M5.0625 6.75H12.9375V7.875H5.0625V6.75Z" fill="#2EBDB1"/>
<path d="M2.8125 9H3.9375V10.125H2.8125V9Z" fill="#2EBDB1"/>
<path d="M5.0625 9H12.9375V10.125H5.0625V9Z" fill="#2EBDB1"/>
<path d="M2.8125 11.25H3.9375V12.375H2.8125V11.25Z" fill="#2EBDB1"/>
<path d="M5.0625 11.25H12.9375V12.375H5.0625V11.25Z" fill="#2EBDB1"/>
<path d="M2.8125 13.5H3.9375V14.625H2.8125V13.5Z" fill="#2EBDB1"/>
<path d="M5.0625 13.5H12.9375V14.625H5.0625V13.5Z" fill="#2EBDB1"/>
<path d="M2.8125 24.75H6.1875V19.125H2.8125V24.75ZM3.9375 20.25H5.0625V23.625H3.9375V20.25Z" fill="#2EBDB1"/>
<path d="M7.3125 24.75H10.6875V20.25H7.3125V24.75ZM8.4375 21.375H9.5625V23.625H8.4375V21.375Z" fill="#2EBDB1"/>
<path d="M11.8125 24.75H15.1875V15.75H11.8125V24.75ZM12.9375 16.875H14.0625V23.625H12.9375V16.875Z" fill="#2EBDB1"/>
</svg>
