<svg width="36" height="36" viewBox="0 0 36 36" fill="none" xmlns="http://www.w3.org/2000/svg">
<g clip-path="url(#clip0)">
<path d="M8.1577 31.3162C7.86639 31.3162 7.63036 31.5523 7.63036 31.8435V35.4726C7.63036 35.7638 7.86639 35.9999 8.1577 35.9999C8.449 35.9999 8.68504 35.7638 8.68504 35.4726V31.8435C8.68504 31.5523 8.449 31.3162 8.1577 31.3162Z" fill="#2EBDB1"/>
<path d="M32.5145 27.573H30.8254C30.2445 26.3795 29.2693 25.4348 28.0407 24.8905L21.1643 21.9429C21.163 21.9423 21.1617 21.9421 21.1604 21.9415L21.1233 21.9256C21.1243 21.8856 21.1268 21.8456 21.1268 21.8057V19.0311C22.5371 17.7942 23.429 15.9801 23.429 13.9614V13.4635H24.1215C24.9308 13.4635 25.5892 12.8051 25.5892 11.9957V10.1363C25.5892 9.46156 25.131 8.89323 24.5098 8.72237V7.64575C24.5098 3.42983 21.0798 0 16.8637 0H16.5095C12.2934 0 8.86329 3.42983 8.86329 7.64575V8.7223C8.24201 8.89309 7.78365 9.46149 7.78365 10.1364V11.9958C7.78365 12.8051 8.44205 13.4635 9.25141 13.4635H9.94139V13.9615C9.94139 15.9815 10.8345 17.7967 12.2463 19.0337V21.8058C12.2463 21.8544 12.2472 21.903 12.2488 21.9514L5.42298 24.9194C3.32881 25.8004 1.97565 27.8379 1.97565 30.1099V35.4722C1.97565 35.7634 2.21169 35.9995 2.50299 35.9995C2.79429 35.9995 3.03033 35.7634 3.03033 35.4722V30.1099C3.03033 28.2634 4.13008 26.6076 5.83776 25.889L10.2499 23.9706L10.8067 24.9217C10.9538 25.173 11.2769 25.2574 11.5282 25.1104C11.7795 24.9632 11.864 24.6402 11.7169 24.3888L11.2242 23.5472L12.3627 23.0522L12.58 23.2196C12.5816 23.2209 12.5832 23.2222 12.5848 23.2234L15.8621 25.7488L13.6652 27.717L12.658 25.9963C12.5108 25.745 12.1879 25.6605 11.9364 25.8076C11.6851 25.9548 11.6006 26.2778 11.7477 26.5292L13.0811 28.807C13.1611 28.9436 13.2982 29.0371 13.4547 29.0616C13.4819 29.0659 13.5091 29.0679 13.5362 29.0679C13.6651 29.0679 13.7907 29.0206 13.8882 28.9333L15.8715 27.1565L14.2836 35.3725C14.2283 35.6584 14.4153 35.935 14.7012 35.9903C14.9873 36.0456 15.2638 35.8585 15.319 35.5726L16.6864 28.4975L18.0537 35.5726C18.1024 35.8248 18.3233 36 18.5709 36C18.6041 36 18.6377 35.9968 18.6715 35.9903C18.9575 35.935 19.1445 35.6584 19.0891 35.3725L17.5013 27.1565L19.4846 28.9333C19.582 29.0206 19.7075 29.0679 19.8365 29.0679C19.8636 29.0679 19.8908 29.0658 19.9181 29.0616C20.0745 29.0371 20.2116 28.9436 20.2916 28.807L23.1417 23.9384L27.6194 25.8573C28.4496 26.2252 29.1389 26.8215 29.6189 27.573H23.9045C23.0719 27.573 22.3946 28.2503 22.3946 29.0829V34.49C22.3946 35.3225 23.0719 35.9999 23.9045 35.9999H32.5145C33.3471 35.9999 34.0244 35.3225 34.0244 34.49V29.0829C34.0244 28.2503 33.3471 27.573 32.5145 27.573ZM24.5345 11.9957C24.5345 12.2234 24.3491 12.4088 24.1214 12.4088H23.4301V9.7232H24.1214C24.3491 9.7232 24.5345 9.90854 24.5345 10.1363V11.9957ZM9.25141 12.4088C9.02367 12.4088 8.83833 12.2234 8.83833 11.9957V10.1363C8.83833 9.90854 9.02367 9.7232 9.25141 9.7232H9.94139V12.4088H9.25141ZM10.9961 13.9614L10.9973 9.19585C10.9973 9.19241 10.9969 9.18903 10.9968 9.18559C11.0087 8.8419 11.0991 8.2098 11.5545 7.66881C12.0126 7.12481 12.5955 6.95641 12.7869 6.90107C13.5461 6.6817 14.0246 6.90072 14.6866 7.20377C15.328 7.49746 16.0547 7.83074 17.1282 7.77731C17.9453 7.73695 18.5406 7.48586 19.0152 7.24553C19.275 7.11391 19.379 6.79666 19.2474 6.53679C19.1157 6.27698 18.7985 6.17313 18.5387 6.30462C18.0829 6.53545 17.6597 6.69513 17.0762 6.72389C16.2601 6.76425 15.7091 6.5119 15.1257 6.24485C14.4245 5.92381 13.63 5.5598 12.4944 5.8878C11.7763 6.09523 11.1887 6.46591 10.7477 6.98953C10.2704 7.55645 10.0715 8.18209 9.99138 8.66823H9.91812V7.64575C9.91812 4.01145 12.875 1.05468 16.5095 1.05468H16.8638C20.4983 1.05468 23.4552 4.01138 23.4552 7.64575V8.66823H23.4077C23.3647 8.29312 23.2541 7.85542 23.0089 7.41428C22.5876 6.65632 21.8414 6.05613 21.013 5.80891C20.734 5.72581 20.4402 5.88443 20.3569 6.16343C20.2736 6.4425 20.4323 6.73626 20.7114 6.81958C20.9252 6.88336 21.6563 7.15181 22.087 7.92672C22.3473 8.39493 22.3871 8.86398 22.3748 9.17497C22.3745 9.18193 22.3743 9.18896 22.3743 9.19592V13.9615C22.3743 17.0982 19.8222 19.6502 16.6852 19.6502C13.5482 19.6502 10.9961 17.0982 10.9961 13.9614ZM13.3737 22.4998C13.3546 22.4075 13.3379 22.3144 13.3265 22.2194C13.3096 22.0853 13.301 21.9461 13.301 21.8058V19.7925C14.2963 20.3723 15.4526 20.705 16.6852 20.705C17.9189 20.705 19.0761 20.3717 20.0721 19.7909V21.8059C20.0721 21.9379 20.0644 22.0712 20.0488 22.2033C20.0373 22.3031 20.0209 22.4018 20.0007 22.4985L16.6864 25.0525L13.3737 22.4998ZM19.7076 27.717L17.5107 25.7488L21.0332 23.0344L21.915 23.4121L22.165 23.5192L19.7076 27.717ZM32.9697 34.49C32.9697 34.741 32.7655 34.9452 32.5145 34.9452H23.9045C23.6535 34.9452 23.4493 34.741 23.4493 34.49V29.0829C23.4493 28.8319 23.6535 28.6277 23.9045 28.6277H30.4849C30.4852 28.6277 30.4856 28.6278 30.4858 28.6278C30.4863 28.6278 30.4868 28.6277 30.4873 28.6277H32.5145C32.7654 28.6277 32.9697 28.8319 32.9697 29.0829V34.49Z" fill="#2EBDB1"/>
<path d="M31.98 30.9759C31.98 30.1843 31.3129 29.5403 30.493 29.5403H29.5643C29.5641 29.5403 29.564 29.5403 29.5638 29.5403C29.5636 29.5403 29.5634 29.5403 29.5632 29.5403C29.2719 29.5403 29.0359 29.7764 29.0359 30.0676V33.5622C29.0359 33.8535 29.2719 34.0896 29.5632 34.0896C29.8545 34.0896 30.0905 33.8535 30.0905 33.5622V32.8128L31.0569 33.9106C31.1611 34.0291 31.3067 34.0896 31.4529 34.0896C31.5767 34.0896 31.7009 34.0463 31.8011 33.9581C32.0197 33.7656 32.041 33.4324 31.8486 33.2138L31.0496 32.3061C31.5943 32.0929 31.98 31.5774 31.98 30.9759ZM30.493 30.595C30.7274 30.595 30.9253 30.7693 30.9253 30.9759C30.9253 31.1823 30.7274 31.3567 30.493 31.3567C30.3978 31.3567 30.2474 31.3573 30.0953 31.358C30.0946 31.2112 30.094 31.067 30.094 30.9759C30.094 30.8977 30.0936 30.7494 30.0932 30.595H30.493V30.595Z" fill="#2EBDB1"/>
<path d="M27.4387 29.5403C27.1474 29.5403 26.9114 29.7764 26.9114 30.0676V31.2276H25.5476V30.0676C25.5476 29.7764 25.3116 29.5403 25.0203 29.5403C24.729 29.5403 24.4929 29.7764 24.4929 30.0676V33.5622C24.4929 33.8535 24.729 34.0896 25.0203 34.0896C25.3116 34.0896 25.5476 33.8535 25.5476 33.5622V32.2823H26.9114V33.5622C26.9114 33.8535 27.1474 34.0896 27.4387 34.0896C27.73 34.0896 27.9661 33.8535 27.9661 33.5622V30.0676C27.9661 29.7764 27.73 29.5403 27.4387 29.5403Z" fill="#2EBDB1"/>
</g>
<defs>
<clipPath id="clip0">
<rect width="36" height="36" fill="white"/>
</clipPath>
</defs>
</svg>
