<svg width="36" height="36" viewBox="0 0 36 36" fill="none" xmlns="http://www.w3.org/2000/svg">
<path d="M2.62498 29.6842C2.18658 29.5285 1.80707 29.2411 1.53852 28.8612C1.26996 28.4814 1.12552 28.0277 1.125 27.5625V6.1875H2.25V27.5625C2.25025 27.7951 2.32247 28.022 2.45675 28.212C2.59103 28.4019 2.7808 28.5457 3.00002 28.6236L2.62498 29.6842ZM19.125 1.125H3.375C2.77847 1.12567 2.20656 1.36294 1.78475 1.78475C1.36294 2.20656 1.12567 2.77847 1.125 3.375V5.0625H2.25V3.375C2.25035 3.07674 2.36899 2.7908 2.5799 2.5799C2.7908 2.36899 3.07674 2.25035 3.375 2.25H19.125C19.3576 2.25025 19.5845 2.32247 19.7745 2.45675C19.9644 2.59103 20.1082 2.7808 20.1861 3.00002L21.2467 2.62498C21.091 2.18658 20.8036 1.80707 20.4237 1.53852C20.0439 1.26996 19.5902 1.12552 19.125 1.125ZM23.0625 10.125V6.1875C23.0621 5.88924 22.9435 5.6033 22.7326 5.3924C22.5217 5.18149 22.2358 5.06285 21.9375 5.0625H10.125V7.875C10.1243 8.47153 9.88706 9.04344 9.46525 9.46525C9.04344 9.88706 8.47153 10.1243 7.875 10.125H5.0625V30.375C5.06285 30.6733 5.18149 30.9592 5.3924 31.1701C5.6033 31.381 5.88924 31.4996 6.1875 31.5H15.1875V32.625H6.1875C5.59097 32.6243 5.01906 32.3871 4.59725 31.9653C4.17544 31.5434 3.93817 30.9715 3.9375 30.375V9.5625C3.9375 9.48863 3.95204 9.41548 3.98031 9.34724C4.00858 9.27899 4.05001 9.21698 4.10224 9.16474L9.16474 4.10224C9.21698 4.05001 9.27899 4.00858 9.34724 3.98031C9.41548 3.95204 9.48863 3.9375 9.5625 3.9375H21.9375C22.534 3.93817 23.1059 4.17544 23.5278 4.59725C23.9496 5.01906 24.1868 5.59097 24.1875 6.1875V10.125H23.0625ZM9 5.85795L5.85795 9H7.875C8.17326 8.99965 8.4592 8.88101 8.6701 8.6701C8.88101 8.4592 8.99965 8.17326 9 7.875V5.85795ZM11.25 12.375V14.0625H18.5625V15.1875H11.25V16.875H16.3125V18H11.25V19.6875H16.3125V20.8125H11.25V22.5H16.3125V23.625H11.25V25.3125H16.3125V26.4375H11.25V28.125H14.0625V29.25H8.4375C7.99011 29.2495 7.56119 29.0715 7.24483 28.7552C6.92848 28.4388 6.75052 28.0099 6.75 27.5625V12.9375C6.75052 12.4901 6.92848 12.0612 7.24483 11.7448C7.56119 11.4285 7.99011 11.2505 8.4375 11.25H19.6875V12.375H11.25ZM10.125 26.4375H7.875V27.5625C7.87517 27.7116 7.93448 27.8546 8.03994 27.9601C8.14539 28.0655 8.28837 28.1248 8.4375 28.125H10.125V26.4375ZM10.125 23.625H7.875V25.3125H10.125V23.625ZM10.125 20.8125H7.875V22.5H10.125V20.8125ZM10.125 18H7.875V19.6875H10.125V18ZM10.125 15.1875H7.875V16.875H10.125V15.1875ZM10.125 12.375H8.4375C8.28837 12.3752 8.14539 12.4345 8.03994 12.5399C7.93448 12.6454 7.87517 12.7884 7.875 12.9375V14.0625H10.125V12.375ZM11.25 9V10.125H16.3125V9H11.25ZM21.375 6.75H11.25V7.875H21.375V6.75ZM25.4569 19.125H25.3125V18.5625H24.1875V19.125H24.0431C23.6767 19.125 23.3223 19.2555 23.0432 19.4929C22.7642 19.7304 22.5787 20.0594 22.52 20.421C22.4614 20.7827 22.5333 21.1535 22.7229 21.467C22.9126 21.7805 23.2076 22.0163 23.5552 22.1322L25.589 22.8102C25.6832 22.8415 25.7632 22.9054 25.8146 22.9904C25.866 23.0753 25.8855 23.1758 25.8696 23.2738C25.8537 23.3718 25.8034 23.461 25.7278 23.5253C25.6522 23.5897 25.5561 23.625 25.4569 23.625H24.0431C23.9323 23.6249 23.826 23.5808 23.7476 23.5024C23.6692 23.424 23.6251 23.3177 23.625 23.2069V23.0625H22.5V23.2069C22.5005 23.616 22.6632 24.0082 22.9525 24.2975C23.2418 24.5868 23.634 24.7495 24.0431 24.75H24.1875V25.3125H25.3125V24.75H25.4569C25.8233 24.75 26.1777 24.6195 26.4568 24.3821C26.7358 24.1446 26.9213 23.8156 26.98 23.454C27.0386 23.0923 26.9667 22.7215 26.7771 22.408C26.5874 22.0945 26.2924 21.8587 25.9448 21.7428L23.911 21.0648C23.8168 21.0335 23.7368 20.9696 23.6854 20.8846C23.634 20.7997 23.6145 20.6992 23.6304 20.6012C23.6463 20.5032 23.6966 20.414 23.7722 20.3497C23.8478 20.2853 23.9439 20.25 24.0431 20.25H25.4569C25.5677 20.2501 25.674 20.2942 25.7524 20.3726C25.8308 20.451 25.8749 20.5573 25.875 20.6681V20.8125H27V20.6681C26.9995 20.259 26.8368 19.8668 26.5475 19.5775C26.2582 19.2882 25.866 19.1255 25.4569 19.125ZM20.0654 18.2804L21.0386 18.8446C21.1875 18.588 21.4008 18.3747 21.6574 18.2258L21.0932 17.2526C20.6669 17.4999 20.3126 17.8542 20.0654 18.2804ZM19.6875 22.5H20.8125V19.6875H19.6875V22.5ZM32.6656 17.6473L33.7094 17.2277C33.0739 15.6471 31.983 14.3856 30.6375 13.6754L30.1125 14.6704C31.2226 15.2563 32.1293 16.3136 32.6656 17.6473ZM34.875 28.125V34.3125C34.875 34.4617 34.8157 34.6048 34.7102 34.7102C34.6048 34.8157 34.4617 34.875 34.3125 34.875H29.25V33.75H31.5V28.4259L31.0303 28.1127C29.753 27.2611 27.9242 27.4346 26.8353 28.5228C26.783 28.575 26.721 28.6164 26.6528 28.6447C26.5845 28.673 26.5114 28.6875 26.4375 28.6875H21.6562C21.4334 28.6906 21.2206 28.7804 21.063 28.938C20.9054 29.0956 20.8156 29.3084 20.8125 29.5312C20.8121 29.6484 20.8365 29.7643 20.8841 29.8713C20.9517 30.0199 21.0602 30.1462 21.197 30.2354C21.3337 30.3246 21.493 30.373 21.6562 30.375H25.875V31.5H21.6562C21.4583 31.5033 21.2613 31.4735 21.0732 31.4116C20.5772 31.2588 20.1622 30.9153 19.9195 30.4565L18.0606 28.9073C17.8117 28.6584 17.3389 28.6358 17.02 28.7111C16.2615 28.8902 16.073 29.9149 16.6793 30.386C17.6978 31.1776 19.78 32.7963 20.7017 33.5135C20.899 33.6666 21.1415 33.7498 21.3912 33.75H28.125V34.875H21.3912C20.8911 34.8744 20.4055 34.7077 20.0104 34.4012C19.089 33.684 17.0072 32.0658 15.9886 31.274C15.7379 31.0797 15.5354 30.8303 15.3965 30.5452C15.2575 30.2601 15.1861 29.9468 15.1875 29.6297V29.6044C15.1862 29.2098 15.2998 28.8235 15.5144 28.4924C15.729 28.1613 16.0353 27.8999 16.396 27.7399C16.5099 27.3018 16.739 26.9022 17.0594 26.5825C17.3011 26.3404 17.4371 26.0125 17.4375 25.6704V19.6875C17.4391 18.4772 17.8735 17.3073 18.6623 16.3894C19.4512 15.4714 20.5423 14.8659 21.7387 14.6823L20.8413 11.9904C20.8131 11.9058 20.8055 11.8158 20.8189 11.7277C20.8323 11.6396 20.8665 11.5559 20.9186 11.4836C20.9708 11.4113 21.0393 11.3524 21.1187 11.3118C21.198 11.2712 21.2859 11.25 21.375 11.25H28.125C28.2141 11.25 28.302 11.2712 28.3813 11.3118C28.4607 11.3524 28.5292 11.4113 28.5814 11.4836C28.6335 11.5559 28.6677 11.6396 28.6811 11.7277C28.6945 11.8158 28.6869 11.9058 28.6587 11.9904L27.7616 14.6817C28.9586 14.8639 30.0507 15.469 30.8398 16.3875C31.6289 17.3059 32.0627 18.4767 32.0625 19.6875V25.6704C32.0635 26.0123 32.1994 26.3401 32.4406 26.5825C32.6776 26.8191 32.8655 27.1002 32.9934 27.4096C33.0145 27.46 33.0334 27.511 33.051 27.5625H34.3125C34.4617 27.5625 34.6048 27.6218 34.7102 27.7273C34.8157 27.8327 34.875 27.9758 34.875 28.125ZM22.1555 12.375L22.9054 14.625H26.5946L27.3445 12.375H22.1555ZM31.3235 26.9771C31.0729 26.5873 30.939 26.1339 30.9375 25.6704V19.6875C30.9377 19.1704 30.8359 18.6583 30.6381 18.1805C30.4403 17.7027 30.1502 17.2686 29.7846 16.9029C29.4189 16.5373 28.9848 16.2472 28.507 16.0494C28.0292 15.8516 27.5171 15.7498 27 15.75H22.5C21.4561 15.7512 20.4552 16.1664 19.7171 16.9046C18.9789 17.6427 18.5637 18.6436 18.5625 19.6875V25.6704C18.5621 26.3108 18.3076 26.925 17.855 27.3781C17.7943 27.4391 17.7393 27.5056 17.6906 27.5766C17.7594 27.5845 17.8277 27.5959 17.8953 27.6108C17.8988 27.6114 17.9023 27.6122 17.9057 27.613C18.2275 27.6847 18.5275 27.8321 18.7808 28.0429L19.7968 28.8896C19.9299 28.5023 20.1807 28.1663 20.514 27.9283C20.8474 27.6904 21.2467 27.5625 21.6562 27.5625H26.2139C27.0235 26.8409 28.0692 26.4407 29.1537 26.4375H29.212C29.95 26.4369 30.6763 26.6225 31.3235 26.9771ZM33.75 28.6875H32.625V33.75H33.75V28.6875Z" fill="#2EBDB1"/>
</svg>
